<svg xmlns="http://www.w3.org/2000/svg" width="87" height="58" viewBox="0 0 87 58">
  <g id="friends" transform="translate(0.333)">
    <rect id="長方形_42" data-name="長方形 42" width="87" height="58" transform="translate(-0.333)" fill="none"/>
    <g id="アートワーク_24" data-name="アートワーク 24" transform="translate(43.167 29)">
      <g id="グループ_378" data-name="グループ 378" transform="translate(-12.5 -12.065)">
        <path id="パス_277" data-name="パス 277" d="M53.953,3.468A11.519,11.519,0,0,0,45.926,0L45.7,0A11.56,11.56,0,0,0,34.533,8.583,6.253,6.253,0,0,1,36.647,7.7,9.847,9.847,0,0,1,45.7,1.716l.2,0A9.836,9.836,0,0,1,45.7,21.389l-.2,0a9.823,9.823,0,0,1-5.255-1.644A6.277,6.277,0,0,1,38,20.167,11.506,11.506,0,0,0,45.473,23.1l.231,0A11.553,11.553,0,0,0,53.953,3.468Z" transform="translate(-32.253)" fill="#ea730c"/>
        <line id="線_723" data-name="線 723" y1="2.475" x2="4.526" transform="translate(13.48 9.078)" fill="none" stroke="#ea730c" stroke-linecap="round" stroke-linejoin="round" stroke-width="1.716"/>
        <line id="線_724" data-name="線 724" y1="7.263" transform="translate(13.447 4.258)" fill="none" stroke="#ea730c" stroke-linecap="round" stroke-linejoin="round" stroke-width="1.716"/>
        <g id="パス_278" data-name="パス 278" transform="translate(0 -115.356)" fill="none" stroke-linecap="round" stroke-linejoin="round">
          <path d="M5.694,123.51a5.68,5.68,0,0,0-3.629,1.3h0a.092.092,0,0,1-.059.068.136.136,0,0,1-.04.046c-.062.045-.123.091-.185.139l-.091.092a.1.1,0,0,1-.021.016,5.716,5.716,0,0,0-.782.972l-.009.017s0,0,0,0l0,.007,0,0q-.021.029-.04.06c-.028.045-.055.09-.081.135s-.033.061-.051.091-.041.073-.06.11l-.006.013,0,0h0a.037.037,0,0,1-.01.023h0l0,0h0a.037.037,0,0,1-.009.021l-.005.006,0,0a.026.026,0,0,1,0,.029c-.015.021-.029.043-.042.065l-.029.062c-.01.027-.021.054-.034.08s-.019.038-.028.057c-.042.1-.082.192-.118.29h0l-.008.023-.007.022c0,.006,0,.011,0,.006a.029.029,0,0,1-.013.035c-.01.027-.02.055-.029.082a.028.028,0,0,1,0,.02c-.013.037-.028.074-.043.11-.031.1-.06.2-.086.306-.006.026-.01.052-.015.079A.586.586,0,0,1,.117,128c0,.022-.01.045-.015.067a.141.141,0,0,1,0,.026c-.016.094-.032.189-.047.283l-.01.07,0,.016v0l0,.033q-.009.072-.015.143a.135.135,0,0,1-.011.044c0,.03-.007.059-.009.089.012.286.009.574,0,.86a5.71,5.71,0,1,0,5.694-6.13Z" stroke="none"/>
          <path d="M 5.693551063537598 125.2264709472656 C 4.819631099700928 125.2264709472656 3.99849271774292 125.4997863769531 3.306953430175781 126.0188293457031 C 3.262851715087891 126.0667114257812 3.216035842895508 126.1123199462891 3.16677188873291 126.1553344726562 C 3.107138633728027 126.2125244140625 3.043739318847656 126.2657012939453 2.977141380310059 126.3142242431641 C 2.957428932189941 126.32861328125 2.937727928161621 126.3431701660156 2.918046951293945 126.3578643798828 C 2.913039207458496 126.3628997802734 2.908010482788086 126.3679351806641 2.902960777282715 126.3729858398438 C 2.878647804260254 126.3972625732422 2.85362720489502 126.4208526611328 2.82793140411377 126.4437255859375 C 2.659918785095215 126.6176300048828 2.505978584289551 126.8098449707031 2.369173049926758 127.0165252685547 C 2.349118232727051 127.0518188476562 2.327813148498535 127.0863952636719 2.305306434631348 127.1201782226562 C 2.295231819152832 127.1355133056641 2.284957885742188 127.150634765625 2.274470329284668 127.1655578613281 C 2.267094612121582 127.1775665283203 2.259746551513672 127.1895904541016 2.252496719360352 127.2016906738281 C 2.232348442077637 127.2397308349609 2.212886810302734 127.2741241455078 2.195060729980469 127.3045806884766 C 2.160908699035645 127.39111328125 2.119640350341797 127.4753875732422 2.071257591247559 127.5567169189453 C 2.06160831451416 127.5786895751953 2.051786422729492 127.6002349853516 2.041770935058594 127.6214447021484 C 2.032720565795898 127.6406707763672 2.023394584655762 127.6597595214844 2.013888359069824 127.6787719726562 C 2.00277042388916 127.7047271728516 1.99233341217041 127.7297515869141 1.982454299926758 127.7541656494141 C 1.965557098388672 127.8165740966797 1.945219993591309 127.8779449462891 1.921541213989258 127.9380187988281 C 1.915972709655762 127.9557800292969 1.910113334655762 127.9734649658203 1.903961181640625 127.9910736083984 C 1.889062881469727 128.0337066650391 1.874516487121582 128.0720062255859 1.861419677734375 128.1052703857422 C 1.849800109863281 128.1446228027344 1.839543342590332 128.1812286376953 1.830486297607422 128.2156677246094 C 1.818889617919922 128.282470703125 1.805037498474121 128.3426971435547 1.790863990783691 128.3961029052734 L 1.780331611633301 128.4588928222656 C 1.770121574401855 128.5195159912109 1.759831428527832 128.5801544189453 1.750600814819336 128.6405944824219 C 1.748011589050293 128.6575317382812 1.745510101318359 128.6744537353516 1.743104934692383 128.6913909912109 L 1.740180969238281 128.7140197753906 C 1.737021446228027 128.7396850585938 1.73435115814209 128.765380859375 1.732181549072266 128.7911529541016 C 1.732041358947754 128.7928466796875 1.731901168823242 128.7945404052734 1.731751441955566 128.7962341308594 C 1.729291915893555 128.8244323730469 1.726197242736816 128.8525543212891 1.722476005554199 128.8805084228516 C 1.728049278259277 129.1004943847656 1.726828575134277 129.3339385986328 1.718796730041504 129.5979919433594 C 1.909322738647461 131.6326141357422 3.63936185836792 133.2145690917969 5.693551063537598 133.2145690917969 C 7.895881175994873 133.2145690917969 9.687601089477539 131.4228515625 9.687601089477539 129.2205200195312 C 9.687601089477539 127.0181884765625 7.895881175994873 125.2264709472656 5.693551063537598 125.2264709472656 M 5.693551063537598 123.510009765625 C 8.847341537475586 123.510009765625 11.40406131744385 126.0666656494141 11.40406131744385 129.2205200195312 C 11.40406131744385 132.3743591308594 8.847341537475586 134.9310302734375 5.693551063537598 134.9310302734375 C 2.680971145629883 134.9310302734375 0.2150211334228516 132.5977783203125 9.5367431640625e-07 129.6399993896484 C 0.01030158996582031 129.3535461425781 0.01399135589599609 129.0660400390625 0.001650810241699219 128.7796478271484 C 0.0038909912109375 128.7498779296875 0.007851600646972656 128.7205657958984 0.01056098937988281 128.6908569335938 C 0.01650142669677734 128.6776580810547 0.0204010009765625 128.6629943847656 0.02178096771240234 128.6471557617188 C 0.02581119537353516 128.5992889404297 0.03076076507568359 128.5515594482422 0.03664112091064453 128.5038909912109 C 0.03796100616455078 128.4930725097656 0.03935146331787109 128.482177734375 0.04080104827880859 128.4713439941406 L 0.04185104370117188 128.4633636474609 L 0.04126071929931641 128.4676513671875 C 0.04199123382568359 128.4622344970703 0.04278087615966797 128.4568328857422 0.04350090026855469 128.4514770507812 C 0.04680156707763672 128.4281768798828 0.05024147033691406 128.4048767089844 0.05380153656005859 128.3815612792969 C 0.06826114654541016 128.2869567871094 0.0847015380859375 128.1925659179688 0.1004114151000977 128.0981597900391 C 0.1018610000610352 128.0894470214844 0.1022615432739258 128.0805969238281 0.1020612716674805 128.0717468261719 C 0.1066207885742188 128.0493011474609 0.1122312545776367 128.0271911621094 0.1170511245727539 128.0047454833984 C 0.1261615753173828 127.9767456054688 0.1349411010742188 127.9486236572266 0.1397609710693359 127.9195098876953 C 0.1441812515258789 127.8929748535156 0.1491308212280273 127.8668975830078 0.1546812057495117 127.8408813476562 C 0.1802911758422852 127.7377014160156 0.2094707489013672 127.6360321044922 0.240631103515625 127.53515625 C 0.2554912567138672 127.4985198974609 0.2706012725830078 127.4620056152344 0.2835407257080078 127.4249725341797 C 0.2858514785766602 127.4184417724609 0.2847309112548828 127.4117126464844 0.2822914123535156 127.4054260253906 C 0.2916011810302734 127.3777008056641 0.3017606735229492 127.3504333496094 0.3115415573120117 127.3229675292969 C 0.3224802017211914 127.3164215087891 0.3295860290527344 127.3043518066406 0.3247222900390625 127.2883453369141 C 0.3263311386108398 127.2935180664062 0.3251657485961914 127.2881927490234 0.3268508911132812 127.2823791503906 C 0.3289613723754883 127.2749176025391 0.3312711715698242 127.267578125 0.3337211608886719 127.2603149414062 C 0.3365612030029297 127.2526702880859 0.3390607833862305 127.244873046875 0.3419008255004883 127.2372894287109 L 0.3419008255004883 127.2372131347656 C 0.3785409927368164 127.1390533447266 0.4184207916259766 127.0424652099609 0.4603414535522461 126.9470062255859 C 0.4699811935424805 126.9282531738281 0.4797515869140625 126.9095764160156 0.4887313842773438 126.8905029296875 C 0.5011415481567383 126.8642272949219 0.5122308731079102 126.8374938964844 0.5224609375 126.8104248046875 C 0.5321006774902344 126.7897491455078 0.5414113998413086 126.7688293457031 0.5513114929199219 126.7482299804688 C 0.564910888671875 126.7261047363281 0.5783815383911133 126.7039337158203 0.5936908721923828 126.6828002929688 C 0.6011514663696289 126.6724395751953 0.6006908416748047 126.6625366210938 0.5965309143066406 126.6542205810547 L 0.5980510711669922 126.6509857177734 C 0.5998315811157227 126.6489410400391 0.6015510559082031 126.6467590332031 0.6034011840820312 126.6446533203125 C 0.6086807250976562 126.6389007568359 0.6115913391113281 126.6313171386719 0.6123809814453125 126.6235961914062 C 0.6131715774536133 126.6232604980469 0.6139612197875977 126.6229248046875 0.6146211624145508 126.6222686767578 L 0.6166715621948242 126.61962890625 C 0.6172008514404297 126.6191711425781 0.6178607940673828 126.6190338134766 0.6183815002441406 126.6185607910156 C 0.621551513671875 126.6156005859375 0.6238613128662109 126.6120300292969 0.6251811981201172 126.6079406738281 C 0.6272315979003906 126.6039733886719 0.6282215118408203 126.5997619628906 0.628021240234375 126.5951995849609 L 0.6278314590454102 126.5938110351562 C 0.6287508010864258 126.5922241210938 0.6298713684082031 126.5907745361328 0.6306009292602539 126.5890502929688 C 0.632451057434082 126.5844421386719 0.6350212097167969 126.5802154541016 0.6370716094970703 126.5757141113281 C 0.6564807891845703 126.5386199951172 0.6768112182617188 126.5021057128906 0.6970109939575195 126.4654846191406 C 0.7149715423583984 126.4358367919922 0.7325315475463867 126.4059295654297 0.7475814819335938 126.3748321533203 C 0.7738609313964844 126.3291473388672 0.8013916015625 126.2843322753906 0.8289108276367188 126.239501953125 C 0.8417911529541016 126.2191009521484 0.855320930480957 126.1991577148438 0.8693809509277344 126.1795501708984 C 0.8705711364746094 126.1781005859375 0.8715009689331055 126.176513671875 0.8724908828735352 126.1748657226562 C 0.8742008209228516 126.1726226806641 0.8755912780761719 126.1701049804688 0.8773107528686523 126.1678009033203 C 0.8781013488769531 126.1666870117188 0.8780307769775391 126.1651611328125 0.878631591796875 126.1639099121094 C 0.8812007904052734 126.1578979492188 0.8847007751464844 126.15234375 0.8875408172607422 126.146484375 C 1.11272144317627 125.7943420410156 1.37429141998291 125.4678192138672 1.669191360473633 125.1742401123047 C 1.676581382751465 125.1698913574219 1.683711051940918 125.164794921875 1.690180778503418 125.1583251953125 C 1.720611572265625 125.1278991699219 1.750781059265137 125.0971984863281 1.78075122833252 125.066162109375 C 1.84209156036377 125.0190277099609 1.903751373291016 124.9726257324219 1.965471267700195 124.9275970458984 C 1.982501029968262 124.9151916503906 1.99630069732666 124.8993377685547 2.005611419677734 124.8817749023438 C 2.034721374511719 124.8696899414062 2.058691024780273 124.8465270996094 2.06450080871582 124.8136596679688 L 2.064631462097168 124.8129272460938 C 3.050671577453613 123.9989929199219 4.314640998840332 123.510009765625 5.693551063537598 123.510009765625 Z M 0.324610710144043 127.2879943847656 C 0.3246488571166992 127.2881164550781 0.3246860504150391 127.2882232666016 0.3247222900390625 127.2883453369141 C 0.3246860504150391 127.2882385253906 0.3246498107910156 127.2881164550781 0.324610710144043 127.2879943847656 Z" stroke="none" fill="#ea730c"/>
        </g>
        <line id="線_725" data-name="線 725" x2="4.885" y2="6.272" transform="translate(8.697 17.858)" fill="none" stroke="#ea730c" stroke-linecap="round" stroke-linejoin="round" stroke-width="1.716"/>
      </g>
    </g>
  </g>
</svg>
