<svg xmlns="http://www.w3.org/2000/svg" width="87" height="58" viewBox="0 0 87 58">
  <g id="friend_add_before" transform="translate(-7)">
    <rect id="長方形_43" data-name="長方形 43" width="87" height="58" transform="translate(7)" fill="none"/>
    <g id="アートワーク_21" data-name="アートワーク 21" transform="translate(50.034 29)">
      <g id="グループ_386" data-name="グループ 386" transform="translate(-12.034 -12.5)">
        <g id="楕円形_94" data-name="楕円形 94" transform="translate(4.67)" fill="none" stroke="#707070" stroke-linecap="round" stroke-linejoin="round" stroke-width="1.706">
          <ellipse cx="6.204" cy="6.204" rx="6.204" ry="6.204" stroke="none"/>
          <ellipse cx="6.204" cy="6.204" rx="5.351" ry="5.351" fill="none"/>
        </g>
        <path id="パス_283" data-name="パス 283" d="M17.08,214.245v1.285H15.938a8.983,8.983,0,0,0-5.064-1.557,9.279,9.279,0,0,0-9.168,9.366H0a10.986,10.986,0,0,1,10.874-11.072,10.688,10.688,0,0,1,6.043,1.865Z" transform="translate(0 -198.339)" fill="#707070"/>
        <path id="パス_284" data-name="パス 284" d="M305.118,309.984h-1.706a9.635,9.635,0,0,0-.142-1.657c0-.016,0-.033,0-.049V305h.684q.065.13.126.262A11.142,11.142,0,0,1,305.118,309.984Z" transform="translate(-283.37 -284.984)" fill="#707070"/>
        <line id="線_749" data-name="線 749" x1="0.684" transform="translate(19.901 20.013)" fill="none"/>
        <line id="線_750" data-name="線 750" x2="11.155" transform="translate(12.913 18.537)" fill="none" stroke="#707070" stroke-linecap="round" stroke-linejoin="round" stroke-width="1.733"/>
        <line id="線_751" data-name="線 751" y1="11.155" transform="translate(18.49 12.959)" fill="none" stroke="#707070" stroke-linecap="round" stroke-linejoin="round" stroke-width="1.709"/>
      </g>
    </g>
  </g>
</svg>
