<svg xmlns="http://www.w3.org/2000/svg" xmlns:xlink="http://www.w3.org/1999/xlink" width="308.579" height="275" viewBox="0 0 308.579 275">
  <defs>
    <filter id="長方形_311" x="1" y="0" width="153" height="275" filterUnits="userSpaceOnUse">
      <feOffset dy="3" input="SourceAlpha"/>
      <feGaussianBlur stdDeviation="3" result="blur"/>
      <feFlood flood-opacity="0.161"/>
      <feComposite operator="in" in2="blur"/>
      <feComposite in="SourceGraphic"/>
    </filter>
    <filter id="長方形_166" x="1" y="153" width="154" height="101" filterUnits="userSpaceOnUse">
      <feOffset dy="3" input="SourceAlpha"/>
      <feGaussianBlur stdDeviation="5" result="blur-2"/>
      <feFlood flood-opacity="0.161"/>
      <feComposite operator="in" in2="blur-2"/>
      <feComposite in="SourceGraphic"/>
    </filter>
    <filter id="IMG20210913174725" x="0" y="15" width="155" height="156" filterUnits="userSpaceOnUse">
      <feOffset dy="3" input="SourceAlpha"/>
      <feGaussianBlur stdDeviation="5" result="blur-3"/>
      <feFlood flood-opacity="0.161"/>
      <feComposite operator="in" in2="blur-3"/>
      <feComposite in="SourceGraphic"/>
    </filter>
    <filter id="長方形_224" x="95" y="119" width="71" height="71" filterUnits="userSpaceOnUse">
      <feOffset dy="5" input="SourceAlpha"/>
      <feGaussianBlur stdDeviation="9" result="blur-4"/>
      <feFlood flood-opacity="0.141"/>
      <feComposite operator="in" in2="blur-4"/>
      <feComposite in="SourceGraphic"/>
    </filter>
  </defs>
  <g id="お気に入り登録案内" transform="translate(-67 -175)">
    <g id="グループ_612" data-name="グループ 612" transform="translate(-3918 -2540)">
      <g transform="matrix(1, 0, 0, 1, 3985, 2715)" filter="url(#長方形_311)">
        <rect id="長方形_311-2" data-name="長方形 311" width="135" height="257" transform="translate(10 6)" fill="#fff"/>
      </g>
      <path id="長方形_310" data-name="長方形 310" d="M0,0H135a0,0,0,0,1,0,0V14a19,19,0,0,1-19,19H0a0,0,0,0,1,0,0V0A0,0,0,0,1,0,0Z" transform="translate(3995 2721)" fill="#ea730c"/>
      <g id="グループ_611" data-name="グループ 611" transform="translate(4000.668 2879.715)">
        <g transform="matrix(1, 0, 0, 1, -15.67, -164.72)" filter="url(#長方形_166)">
          <rect id="長方形_166-2" data-name="長方形 166" width="124" height="71" rx="20" transform="translate(16 165)" fill="#fff"/>
        </g>
        <text id="_20YY_M_D_" data-name="20YY / M / D " transform="translate(5.332 11.285)" fill="#212121" font-size="4" font-family="GenSenRoundedJP-R, GenSenRounded JP" letter-spacing="0.05em"><tspan x="0" y="0">20YY / M / D </tspan></text>
        <text id="場所" transform="translate(50.332 11.285)" fill="#212121" font-size="5" font-family="GenSenRoundedJP-R, GenSenRounded JP" letter-spacing="0.05em"><tspan x="0" y="0">場所</tspan></text>
        <g id="グループ_271" data-name="グループ 271" transform="translate(46.031 7.222)">
          <g id="パス_201" data-name="パス 201" transform="translate(0)" fill="#fff">
            <path d="M 1.734280586242676 3.787015199661255 C 1.147284388542175 3.114705562591553 0.5000005960464478 2.208935976028442 0.5000005960464478 1.773426651954651 C 0.5000005960464478 1.071256756782532 1.053700566291809 0.4999967217445374 1.734280586242676 0.4999967217445374 C 2.414860486984253 0.4999967217445374 2.968560695648193 1.071256756782532 2.968560695648193 1.773426651954651 C 2.968560695648193 2.208935976028442 2.321276664733887 3.114705562591553 1.734280586242676 3.787015199661255 Z" stroke="none"/>
            <path d="M 1.734280586242676 0.9999966621398926 C 1.331031560897827 0.9999966621398926 1.002656221389771 1.3441321849823 1.000017166137695 1.768242120742798 C 1.021075248718262 1.981829166412354 1.326525211334229 2.479681253433228 1.734267592430115 3.003013134002686 C 2.14207935333252 2.479605436325073 2.447488069534302 1.981809139251709 2.468544006347656 1.768242120742798 C 2.465904951095581 1.3441321849823 2.137529611587524 0.9999966621398926 1.734280586242676 0.9999966621398926 M 1.734280586242676 -3.337860107421875e-06 C 2.692100524902344 -3.337860107421875e-06 3.468560695648193 0.7939867973327637 3.468560695648193 1.77342677116394 C 3.468560695648193 2.752866744995117 1.734280586242676 4.524996757507324 1.734280586242676 4.524996757507324 C 1.734280586242676 4.524996757507324 4.76837158203125e-07 2.752866744995117 4.76837158203125e-07 1.77342677116394 C 4.76837158203125e-07 0.7939867973327637 0.7764606475830078 -3.337860107421875e-06 1.734280586242676 -3.337860107421875e-06 Z" stroke="none" fill="#9e9e9e"/>
          </g>
          <g id="楕円形_73" data-name="楕円形 73" transform="translate(1.014 1.072)" fill="#fff" stroke="#9e9e9e" stroke-width="1">
            <ellipse cx="0.75" cy="0.75" rx="0.75" ry="0.75" stroke="none"/>
            <ellipse cx="0.75" cy="0.75" rx="0.25" ry="0.25" fill="none"/>
          </g>
        </g>
        <g id="グループ_287" data-name="グループ 287" transform="translate(101.323 6.377)">
          <rect id="長方形_198" data-name="長方形 198" width="18" height="6" rx="3" transform="translate(0.009 -0.092)" fill="#ea730c"/>
          <text id="和食" transform="translate(5.009 3.908)" fill="#fff" font-size="3" font-family="GenSenRoundedJP-R, GenSenRounded JP" letter-spacing="0.05em"><tspan x="0" y="0">和食</tspan></text>
        </g>
      </g>
      <g transform="matrix(1, 0, 0, 1, 3985, 2715)" filter="url(#IMG20210913174725)">
        <rect id="IMG20210913174725-2" data-name="IMG20210913174725" width="125" height="126" rx="28" transform="translate(15 27)" fill="#fff"/>
      </g>
      <g id="header" transform="translate(3995 2721)">
        <rect id="長方形_158" data-name="長方形 158" width="135" height="16" fill="#ea730c" opacity="0.9"/>
        <g id="グループ_441" data-name="グループ 441" transform="translate(20.548 2.834)">
          <g id="グループ_233" data-name="グループ 233" transform="translate(0 0)">
            <circle id="スマホ女子" cx="5" cy="5" r="5" transform="translate(0.452 0.166)" fill="#fff"/>
          </g>
          <text id="_" data-name="＊＊＊＊＊＊＊" transform="translate(13.452 7.166)" fill="#fff" font-size="4" font-family="GenSenRoundedJP-R, GenSenRounded JP" letter-spacing="0.05em"><tspan x="0" y="0">＊＊＊＊＊＊＊</tspan></text>
        </g>
        <g id="_2" data-name="←" transform="translate(4.96 1.417)">
          <g id="グループ_6" data-name="グループ 6" transform="translate(3.766 4.28)">
            <path id="パス_1" data-name="パス 1" d="M235.308,14,233,16.308l2.308,2.308" transform="translate(-233 -14)" fill="none" stroke="#fff" stroke-linecap="round" stroke-linejoin="round" stroke-width="2"/>
            <path id="パス_2" data-name="パス 2" d="M241,22h6.923" transform="translate(-241 -19.692)" fill="none" stroke="#fff" stroke-linecap="round" stroke-width="2"/>
          </g>
          <ellipse id="楕円形_8" data-name="楕円形 8" cx="7" cy="7.5" rx="7" ry="7.5" transform="translate(0.04 -0.417)" fill="none"/>
        </g>
      </g>
      <g id="コンポーネント_14_3" data-name="コンポーネント 14 – 3" transform="translate(4107 2856)">
        <g transform="matrix(1, 0, 0, 1, -122, -141)" filter="url(#長方形_224)">
          <rect id="長方形_224-2" data-name="長方形 224" width="17" height="17" rx="8.5" transform="translate(122 141)" fill="#fff"/>
        </g>
        <g id="アートワーク_33" data-name="アートワーク 33" transform="translate(8.653 8.653)">
          <path id="パス_271" data-name="パス 271" d="M3.606,0,4.72,2.258l2.491.362-1.8,1.757.426,2.481L3.606,5.687,1.377,6.858,1.8,4.377,0,2.62l2.491-.362Z" transform="translate(-3.606 -3.429)" fill="none" stroke="#707070" stroke-linecap="round" stroke-linejoin="round" stroke-width="0.529"/>
        </g>
      </g>
      <g id="グループ_136" data-name="グループ 136" transform="translate(4004.211 2748.9)">
        <rect id="長方形_103" data-name="長方形 103" width="97.897" height="97.897" rx="14" transform="matrix(0.996, 0.087, -0.087, 0.996, 20.095, 0)" fill="#ffeac9"/>
        <rect id="長方形_106" data-name="長方形 106" width="97.897" height="97.897" rx="14" transform="matrix(0.999, -0.035, 0.035, 0.999, 0, 14.29)" fill="#f2f2f2"/>
        <g id="グループ_141" data-name="グループ 141" transform="translate(14.974 38.35)">
          <g id="グループ_140" data-name="グループ 140" transform="translate(14.076)">
            <circle id="楕円形_42" data-name="楕円形 42" cx="21.611" cy="21.611" r="21.611" fill="#fff"/>
            <g id="楕円形_43" data-name="楕円形 43" transform="translate(4.96 4.251)" fill="none" stroke="#f2f2f2" stroke-width="1">
              <circle cx="17.005" cy="17.005" r="17.005" stroke="none"/>
              <circle cx="17.005" cy="17.005" r="16.505" fill="none"/>
            </g>
          </g>
          <path id="合体_10" data-name="合体 10" d="M2.789,42.742v-24.6A5.845,5.845,0,0,1,.041,13.155,1.674,1.674,0,0,1,0,12.784V1.463A1.362,1.362,0,0,1,1.23,0,1.361,1.361,0,0,1,2.46,1.463v8.731h.985V1.463A1.362,1.362,0,0,1,4.675,0,1.362,1.362,0,0,1,5.9,1.463v8.731H7.216V1.463A1.362,1.362,0,0,1,8.446,0a1.362,1.362,0,0,1,1.23,1.463v11.32a1.728,1.728,0,0,1-.041.376,5.8,5.8,0,0,1-2.912,5.072v24.51a2.179,2.179,0,0,1-1.967,2.342A2.179,2.179,0,0,1,2.789,42.742Z" transform="translate(0 5.36) rotate(-3)" fill="#fff"/>
          <path id="合体_9" data-name="合体 9" d="M3.444,43.522V18.486C1.387,17.13,0,13.74,0,9.562,0,4.111,2.362,0,5.494,0s5.494,4.111,5.494,9.562c0,4.288-1.461,7.746-3.608,9.027V43.522a2.179,2.179,0,0,1-1.967,2.341A2.179,2.179,0,0,1,3.444,43.522Z" transform="translate(60.06 1.723) rotate(-2)" fill="#fff"/>
        </g>
      </g>
    </g>
    <g id="グループ_131" data-name="グループ 131" transform="translate(80 94)">
      <path id="パス_506" data-name="パス 506" d="M12.762.791a3,3,0,0,1-.888-.158q-.5-.158-.87-.281a9.939,9.939,0,0,1-2.3-1.2A5.348,5.348,0,0,1,7.093-2.619,5.078,5.078,0,0,1,6.5-5.133a5.639,5.639,0,0,1,.624-2.584,7.991,7.991,0,0,1,1.644-2.2,7.857,7.857,0,0,1,2.2-1.494L2.3-11.074a1.335,1.335,0,0,1-.729-.149.7.7,0,0,1-.29-.659.661.661,0,0,1,.264-.606,1.307,1.307,0,0,1,.65-.185l13.588-.457q.7-.018.7.721a.626.626,0,0,1-.211.51,1.306,1.306,0,0,1-.536.255,3.56,3.56,0,0,1-.65.1q-.325.018-.554.053a7,7,0,0,0-2.224.65,8.459,8.459,0,0,0-2.039,1.354A6.819,6.819,0,0,0,8.789-7.611a4.711,4.711,0,0,0-.562,2.25,3.453,3.453,0,0,0,.4,1.688A4.032,4.032,0,0,0,9.677-2.435a6.723,6.723,0,0,0,1.459.87A10.718,10.718,0,0,0,12.744-1a2.283,2.283,0,0,1,.65.272.658.658,0,0,1,.3.606A.816.816,0,0,1,12.762.791ZM13.9-6.5a.552.552,0,0,1-.615-.633V-8.842q0-.65.615-.65t.615.65v1.705A.552.552,0,0,1,13.9-6.5Zm1.986,0a.552.552,0,0,1-.615-.633V-8.842q0-.65.615-.65t.615.65v1.705A.552.552,0,0,1,15.891-6.5ZM24.261.668A3.426,3.426,0,0,1,22.354.114a4,4,0,0,1-1.345-1.45,3.954,3.954,0,0,1-.492-1.934,3.4,3.4,0,0,1,.422-1.687,4.685,4.685,0,0,1,1.125-1.336,7.851,7.851,0,0,1,1.521-.984,9.717,9.717,0,0,1,1.608-.633v-3.2H21.466a1.244,1.244,0,0,1-.65-.158.62.62,0,0,1-.264-.58.639.639,0,0,1,.264-.6,1.244,1.244,0,0,1,.65-.158h3.727q0-.264-.018-.624a4.8,4.8,0,0,1,.018-.712,1.112,1.112,0,0,1,.211-.58.665.665,0,0,1,.563-.229.665.665,0,0,1,.563.229,1.112,1.112,0,0,1,.211.58,4.8,4.8,0,0,1,.018.712q-.018.36-.018.624H30.5a1.148,1.148,0,0,1,.642.167.65.65,0,0,1,.255.589.628.628,0,0,1-.255.58,1.2,1.2,0,0,1-.642.158H26.74v2.865q.527-.088,1.055-.149a9.247,9.247,0,0,1,1.072-.062,10.341,10.341,0,0,1,2.224.237,6.113,6.113,0,0,1,1.951.782A4.115,4.115,0,0,1,34.43-6,4.313,4.313,0,0,1,34.949-3.8a4.423,4.423,0,0,1-.51,2.127,3.86,3.86,0,0,1-1.424,1.5,4.024,4.024,0,0,1-2.127.554q-.264,0-.756-.018a5.823,5.823,0,0,1-.993-.123,2.494,2.494,0,0,1-.853-.334.731.731,0,0,1-.352-.65.963.963,0,0,1,.149-.554.581.581,0,0,1,.519-.22,3.231,3.231,0,0,1,1.028.167,3.285,3.285,0,0,0,1.046.167,2.509,2.509,0,0,0,1.916-.765,2.719,2.719,0,0,0,.721-1.942,2.99,2.99,0,0,0-.4-1.635A2.73,2.73,0,0,0,31.837-6.5a4.962,4.962,0,0,0-1.485-.475A10.305,10.305,0,0,0,28.709-7.1a7.929,7.929,0,0,0-.984.062q-.492.062-.984.167v5.08A2.183,2.183,0,0,1,24.261.668ZM34.773-9.967a.757.757,0,0,1-.5-.185,2.393,2.393,0,0,1-.378-.4q-.457-.562-.914-1.072-.123-.141-.439-.439a7.1,7.1,0,0,1-.58-.615.914.914,0,0,1-.264-.51.592.592,0,0,1,.229-.536,1.04,1.04,0,0,1,.58-.149.988.988,0,0,1,.554.22,6.027,6.027,0,0,1,.633.527q.325.308.58.58t.378.4q.158.158.387.413a3.642,3.642,0,0,1,.4.527,1,1,0,0,1,.167.519.629.629,0,0,1-.237.554A1,1,0,0,1,34.773-9.967ZM24.121-.826a.87.87,0,0,0,.853-.422,2.063,2.063,0,0,0,.22-.967V-6.469a11.175,11.175,0,0,0-1.459.721,4.456,4.456,0,0,0-1.266,1.081,2.37,2.37,0,0,0-.51,1.521,2.283,2.283,0,0,0,.29,1.1,2.511,2.511,0,0,0,.782.879A1.865,1.865,0,0,0,24.121-.826ZM39.277-9.264q-.756,0-.756-.791a.726.726,0,0,1,.149-.4A3.767,3.767,0,0,1,39-10.872q.185-.2.29-.308.686-.7,1.292-1.459A15.7,15.7,0,0,0,41.7-14.221a3.89,3.89,0,0,1,.439-.6.834.834,0,0,1,.65-.3,1.569,1.569,0,0,1,.571.105.437.437,0,0,1,.272.457.916.916,0,0,1-.141.4,4.121,4.121,0,0,1-.229.378H53.638a1.085,1.085,0,0,1,.589.149.583.583,0,0,1,.237.536.561.561,0,0,1-.237.527,1.138,1.138,0,0,1-.589.141H42.353q-.123.158-.4.527t-.642.817q-.36.448-.747.861a7.521,7.521,0,0,1-.721.686A.978.978,0,0,1,39.277-9.264Zm2.795-.615a.809.809,0,0,1-.527-.158.6.6,0,0,1-.193-.492.6.6,0,0,1,.193-.5.842.842,0,0,1,.527-.149H52.179a.842.842,0,0,1,.527.149.6.6,0,0,1,.193.5.6.6,0,0,1-.193.492.809.809,0,0,1-.527.158ZM53.48,1.389a1.188,1.188,0,0,1-.773-.272,2.4,2.4,0,0,1-.562-.668A8.367,8.367,0,0,1,51.757-.3a7.12,7.12,0,0,1-.492-1.96q-.123-1.081-.141-2.188t-.07-2.021a1.019,1.019,0,0,0-.176-.554.585.585,0,0,0-.51-.22H40.419a1.131,1.131,0,0,1-.6-.149.575.575,0,0,1-.246-.536.548.548,0,0,1,.255-.527,1.2,1.2,0,0,1,.589-.141H50.984a1.864,1.864,0,0,1,1.178.343A1.329,1.329,0,0,1,52.6-7.137v.817q0,.571.009,1.318t.044,1.512q.035.765.132,1.424A5.424,5.424,0,0,0,53.031-1q.149.4.378.4.176,0,.22-.229a3.589,3.589,0,0,0,.053-.571,6.748,6.748,0,0,1,.053-.686,1.344,1.344,0,0,1,.193-.571.535.535,0,0,1,.483-.229.6.6,0,0,1,.668.686q0,.369-.062.967a7.161,7.161,0,0,1-.229,1.2A2.948,2.948,0,0,1,54.306.976.993.993,0,0,1,53.48,1.389Zm-13.852-.3a.669.669,0,0,1-.545-.211.85.85,0,0,1-.176-.562.618.618,0,0,1,.2-.492,1.62,1.62,0,0,1,.466-.281Q40.894-1,42.115-1.626a15.321,15.321,0,0,0,2.347-1.485,14.658,14.658,0,0,0-1.389-.861q-.738-.4-1.459-.756a4.508,4.508,0,0,1-.475-.281.53.53,0,0,1-.264-.457q0-.7.756-.7a1.727,1.727,0,0,1,.58.176q.4.176.923.457t1.028.571q.51.29.905.527l.571.343q.422-.387.809-.782T47.2-5.7q.176-.193.5-.51a.916.916,0,0,1,.606-.316q.756,0,.756.7a1.1,1.1,0,0,1-.281.519q-.281.36-.659.773t-.721.756l-.466.466.527.325q.387.237.853.563t.914.668a6.745,6.745,0,0,1,.738.642.822.822,0,0,1,.29.492q0,.791-.826.791a.85.85,0,0,1-.492-.193q-.264-.193-.439-.316-.65-.527-1.327-1.02t-1.4-.932a10.342,10.342,0,0,1-.923.7q-.606.422-1.345.888t-1.485.87a13.635,13.635,0,0,1-1.38.659A2.908,2.908,0,0,1,39.628,1.09ZM60.6.475A.784.784,0,0,1,60.04.29a1.2,1.2,0,0,1-.3-.519,6.677,6.677,0,0,1-.149-.809q-.079-.562-.141-1.292T59.337-3.8q-.053-.738-.079-1.345t-.026-.923q0-1.705.141-3.437a26.584,26.584,0,0,1,.492-3.384,3.376,3.376,0,0,1,.3-.817.743.743,0,0,1,.721-.413q.756,0,.756.7a2.555,2.555,0,0,1-.044.466q-.044.237-.1.466a21.031,21.031,0,0,0-.448,3q-.114,1.5-.114,3.015A37.594,37.594,0,0,0,61.147-2.5q.035.439.105.879t.123.9a1.709,1.709,0,0,1,.026.2q.009.114.009.2A.707.707,0,0,1,60.6.475Zm3.9-10.881q-.633,0-.633-.686a.708.708,0,0,1,.211-.536,1.4,1.4,0,0,1,.51-.308,4.137,4.137,0,0,1,.563-.158q1.354-.264,2.76-.4t2.795-.132a7,7,0,0,1,.7.044,2.067,2.067,0,0,1,.756.22.605.605,0,0,1,.334.58.775.775,0,0,1-.264.668,1.163,1.163,0,0,1-.7.193q-.387,0-.773-.035t-.791-.035a20.67,20.67,0,0,0-2.514.141q-1.143.141-2.479.369-.105.018-.237.044A1.222,1.222,0,0,1,64.5-10.406ZM70.059-.668q-.809,0-1.723-.035a11.162,11.162,0,0,1-1.784-.211,5.505,5.505,0,0,1-1.573-.562,2.953,2.953,0,0,1-1.125-1.09,3.48,3.48,0,0,1-.422-1.811,5.749,5.749,0,0,1,.07-.853,1.77,1.77,0,0,1,.316-.8.877.877,0,0,1,.756-.334.847.847,0,0,1,.51.141.569.569,0,0,1,.193.492,2.017,2.017,0,0,1-.132.694,2.208,2.208,0,0,0-.132.765,1.34,1.34,0,0,0,.343.949,2.331,2.331,0,0,0,.9.58,5.421,5.421,0,0,0,1.178.3q.624.088,1.2.114t.958.026q.65,0,1.283-.062t1.266-.062a.692.692,0,0,1,.791.773.787.787,0,0,1-.58.791,2.74,2.74,0,0,1-.677.132q-.448.044-.9.053T70.059-.668Zm7.052,1.775A.694.694,0,0,1,76.5.853a1.1,1.1,0,0,1-.176-.642.852.852,0,0,1,.272-.6,3.582,3.582,0,0,1,.624-.51q.352-.229.58-.4a15.629,15.629,0,0,0,3.551-3.683,20.188,20.188,0,0,0,2.3-4.562q.018-.07.1-.316t.176-.536q.1-.29.167-.519a1.768,1.768,0,0,0,.07-.264q0-.281-.018-.677a1.806,1.806,0,0,0-.158-.694.543.543,0,0,0-.545-.3H81.067a1.213,1.213,0,0,1-.7-.193.732.732,0,0,1-.281-.65.709.709,0,0,1,.281-.642,1.256,1.256,0,0,1,.7-.185h3.059A1.355,1.355,0,0,1,85.347-14a2.362,2.362,0,0,1,.343,1.327v.123a14.79,14.79,0,0,0,1.274,5.66A13.822,13.822,0,0,0,90.4-2.215a11.091,11.091,0,0,0,.9.712q.457.325.932.659a2.888,2.888,0,0,1,.448.4.763.763,0,0,1,.2.536,1.131,1.131,0,0,1-.193.686.753.753,0,0,1-.65.264,1.409,1.409,0,0,1-.668-.22A7.13,7.13,0,0,1,90.577.29q-.4-.308-.756-.615t-.545-.483a15.132,15.132,0,0,1-2.8-3.489A18.223,18.223,0,0,1,84.705-8.42a22.452,22.452,0,0,1-1.248,2.892A17.087,17.087,0,0,1,81.875-3.05,21.7,21.7,0,0,1,79.766-.7q-.193.176-.519.483t-.712.606A6.592,6.592,0,0,1,77.78.9,1.374,1.374,0,0,1,77.112,1.107Zm25.316-.053a1.239,1.239,0,0,1-.747-.211.811.811,0,0,1-.29-.7.583.583,0,0,1,.36-.571,3.354,3.354,0,0,1,.677-.237,9.726,9.726,0,0,0,3.1-1.213,4.218,4.218,0,0,0,1.652-2.039,9.267,9.267,0,0,0,.5-3.322q0-1.564-.1-3.155t-.185-3.155a.744.744,0,0,1,.229-.633.938.938,0,0,1,.633-.211.687.687,0,0,1,.721.4,2.541,2.541,0,0,1,.176.853q.07,1.406.149,2.83t.079,2.848a16.536,16.536,0,0,1-.246,3.041,6.207,6.207,0,0,1-.87,2.259A5.64,5.64,0,0,1,106.55-.51a12.494,12.494,0,0,1-2.8,1.266L103.1.94A2.559,2.559,0,0,1,102.428,1.055Zm-2.443-4.9a1.8,1.8,0,0,1-1.16-.352,2.142,2.142,0,0,1-.659-.914,4.964,4.964,0,0,1-.3-1.2,9.659,9.659,0,0,1-.079-1.2,25.176,25.176,0,0,1,.141-2.637q.141-1.336.316-2.619a3.636,3.636,0,0,1,.123-.536,1.412,1.412,0,0,1,.264-.5.605.605,0,0,1,.492-.211,1.138,1.138,0,0,1,.589.141.561.561,0,0,1,.237.527,3.294,3.294,0,0,1-.035.483q-.035.237-.088.483a23.936,23.936,0,0,0-.352,2.6q-.105,1.318-.105,2.619a4.434,4.434,0,0,0,.044.589,1.2,1.2,0,0,0,.22.563.614.614,0,0,0,.527.237.576.576,0,0,0,.475-.22,2.333,2.333,0,0,0,.316-.554q.141-.334.281-.659a1.924,1.924,0,0,1,.343-.545.673.673,0,0,1,.519-.22.668.668,0,0,1,.756.756,2.783,2.783,0,0,1-.237,1.037,4.647,4.647,0,0,1-.65,1.107,4.033,4.033,0,0,1-.923.87A1.866,1.866,0,0,1,99.984-3.85ZM114.841-7.4a.669.669,0,0,1-.545-.211.85.85,0,0,1-.176-.562.588.588,0,0,1,.246-.51,2.283,2.283,0,0,1,.527-.281,14.975,14.975,0,0,0,2.883-1.424q-.123-.088-.413-.272t-.606-.413a4.475,4.475,0,0,1-.545-.457.628.628,0,0,1-.229-.4.6.6,0,0,1,.193-.5.842.842,0,0,1,.527-.149,1.131,1.131,0,0,1,.475.176q.316.176.694.422t.694.466q.316.22.439.308l.492-.352q.369-.264.8-.6a8.889,8.889,0,0,0,.747-.642q.316-.308.316-.448,0-.105-.158-.105h-5.027a1.1,1.1,0,0,1-.571-.141.561.561,0,0,1-.237-.527.54.54,0,0,1,.237-.519,1.16,1.16,0,0,1,.571-.132h6.311a2.517,2.517,0,0,1,.729.114.515.515,0,0,1,.378.554.545.545,0,0,1-.105.3,3.124,3.124,0,0,1-.193.264l.563.633a7.191,7.191,0,0,0,.6.6q.352-.352.668-.721t.615-.756a3.809,3.809,0,0,1,.308-.308.574.574,0,0,1,.4-.149.6.6,0,0,1,.686.668.857.857,0,0,1-.229.466,6.279,6.279,0,0,1-.554.606q-.325.316-.615.563t-.431.352l1.2.791a2.345,2.345,0,0,0,.536-.457l.6-.65a5.913,5.913,0,0,1,.6-.571.854.854,0,0,1,.5-.237q.7,0,.7.65a.775.775,0,0,1-.237.431,7.27,7.27,0,0,1-.562.571q-.325.3-.624.536t-.4.325a9.933,9.933,0,0,0,1.116.492q.571.211,1.151.4a2.345,2.345,0,0,1,.554.281.616.616,0,0,1,.255.545.707.707,0,0,1-.791.809,2.412,2.412,0,0,1-.756-.149,7.324,7.324,0,0,1-.914-.387q-.475-.237-.9-.466t-.686-.387a.531.531,0,0,1-.105.536.7.7,0,0,1-.527.2H118.8a.583.583,0,0,1-.65-.668l.018-.07V-9q-.211.158-.65.422t-.958.536a10.232,10.232,0,0,1-.984.457A2.15,2.15,0,0,1,114.841-7.4Zm4.043-2.074h6.961q-.9-.65-1.811-1.424a10.079,10.079,0,0,1-1.582-1.67q-.861.844-1.714,1.626A16.613,16.613,0,0,1,118.884-9.475ZM115.123.949a1.211,1.211,0,0,1-.58-.132A.533.533,0,0,1,114.3.3a.554.554,0,0,1,.246-.527,1.149,1.149,0,0,1,.58-.141H118.9l-.457-2.092h-.791a2.9,2.9,0,0,1-.738-.088.965.965,0,0,1-.536-.352,1.325,1.325,0,0,1-.2-.809l.018-1.881a1.913,1.913,0,0,1,.264-1.1,1.214,1.214,0,0,1,1.055-.378h9.773a1.475,1.475,0,0,1,.984.3,1.18,1.18,0,0,1,.352.949l-.018,1.881a1.921,1.921,0,0,1-.264,1.09,1.2,1.2,0,0,1-1.055.387h-.932l-.6,2.092h3.937a1.091,1.091,0,0,1,.58.141A.569.569,0,0,1,130.5.3a.547.547,0,0,1-.229.519,1.149,1.149,0,0,1-.58.132Zm3.129-4.676h8.3a.5.5,0,0,0,.563-.562v-.949a.5.5,0,0,0-.562-.562h-8.3a.5.5,0,0,0-.562.563v.949A.5.5,0,0,0,118.252-3.727Zm2.18,3.357h3.85l.51-2.092h-4.834ZM134.005.65a.629.629,0,0,1-.721-.7.534.534,0,0,1,.369-.545,2.815,2.815,0,0,1,.686-.176l1.9-.229V-6.24h-1.951a.965.965,0,0,1-.545-.141.547.547,0,0,1-.211-.492.517.517,0,0,1,.22-.483,1.024,1.024,0,0,1,.536-.132h1.951V-9.141h-1.248a1.083,1.083,0,0,1-.536-.123.5.5,0,0,1-.22-.475.5.5,0,0,1,.053-.229q-.141.088-.308.2a.6.6,0,0,1-.343.114.548.548,0,0,1-.475-.193.847.847,0,0,1-.141-.51.9.9,0,0,1,.3-.58q.3-.316.475-.475a9.953,9.953,0,0,0,1.38-1.538,14.87,14.87,0,0,0,1.081-1.749.711.711,0,0,1,.65-.422,1.477,1.477,0,0,1,.51.1.4.4,0,0,1,.264.413.685.685,0,0,1-.053.255q-.053.132-.088.237.193.105.615.378t.888.606a5.974,5.974,0,0,1,.8.677.944.944,0,0,1,.334.589q0,.668-.7.668a1.3,1.3,0,0,1-.439-.255q-.352-.255-.8-.615l-.817-.659q-.369-.3-.475-.369-.176.246-.457.65t-.606.826q-.325.422-.642.782a3.512,3.512,0,0,1-.562.536,2.028,2.028,0,0,1,.492-.044q.4-.009.967-.009h1.134q.571,0,1.02.009t.606.009a1,1,0,0,1,.51.123.5.5,0,0,1,.211.475.505.505,0,0,1-.211.466.943.943,0,0,1-.51.132h-1.477v1.652H139a.965.965,0,0,1,.545.141.547.547,0,0,1,.211.492.517.517,0,0,1-.22.483A1.024,1.024,0,0,1,139-6.24h-1.582v5.08q.334-.07.729-.149a3.739,3.739,0,0,1,.729-.079.544.544,0,0,1,.615.615.522.522,0,0,1-.229.457,1.308,1.308,0,0,1-.492.211q-.334.07-.984.193T136.4.343q-.738.132-1.389.22A8.051,8.051,0,0,1,134.005.65Zm9.6.721q-.3,0-.729.018a1.711,1.711,0,0,1-.756-.123.581.581,0,0,1-.325-.6.648.648,0,0,1,.176-.527.766.766,0,0,1,.439-.158q.264-.018.527-.018a1.866,1.866,0,0,0,.606-.088q.255-.088.255-.492V-7.488h-3.2a.85.85,0,0,1-.519-.149.561.561,0,0,1-.2-.483.524.524,0,0,1,.211-.483.943.943,0,0,1,.51-.132h5.836l.088-1.582h-5.309a.855.855,0,0,1-.492-.132.523.523,0,0,1-.193-.466.523.523,0,0,1,.193-.466.855.855,0,0,1,.492-.132h5.361l.035-.826a.589.589,0,0,0-.668-.686h-5.08a.881.881,0,0,1-.536-.149.582.582,0,0,1-.2-.5.582.582,0,0,1,.2-.5.881.881,0,0,1,.536-.149h5.572a3.142,3.142,0,0,1,.747.088,1.207,1.207,0,0,1,.6.334,1,1,0,0,1,.237.721q0,1.09-.079,2.215T147.8-8.736q.281,0,.694-.026a1.7,1.7,0,0,1,.729.1.534.534,0,0,1,.316.563.548.548,0,0,1-.193.475.847.847,0,0,1-.51.141H145.15v1.125a7.53,7.53,0,0,0,.369.8q.211.4.439.765L147.593-6.5a1.657,1.657,0,0,1,.272-.22.587.587,0,0,1,.325-.1.645.645,0,0,1,.738.721.915.915,0,0,1-.3.5,9.037,9.037,0,0,1-.712.686q-.413.36-.791.65t-.554.413a8.222,8.222,0,0,0,1.1,1.274,10.353,10.353,0,0,0,1.31,1.046,2.245,2.245,0,0,1,.413.369.748.748,0,0,1,.185.51.946.946,0,0,1-.176.606.7.7,0,0,1-.58.22,1.324,1.324,0,0,1-.809-.36,6.318,6.318,0,0,1-.888-.914,12.531,12.531,0,0,1-.844-1.178q-.4-.624-.694-1.16t-.439-.853v3.92a2.233,2.233,0,0,1-.316,1.283A1.4,1.4,0,0,1,143.6,1.371Zm-1.582-5.607a.755.755,0,0,1-.475-.237,3.32,3.32,0,0,1-.492-.562,5.313,5.313,0,0,1-.378-.615,1.124,1.124,0,0,1-.149-.4q0-.6.65-.6a.757.757,0,0,1,.431.2,3.971,3.971,0,0,1,.51.492,3.853,3.853,0,0,1,.422.571.972.972,0,0,1,.167.457A.606.606,0,0,1,142.021-4.236ZM134.6-2a.513.513,0,0,1-.448-.185.782.782,0,0,1-.132-.466V-4.693a.773.773,0,0,1,.132-.475.525.525,0,0,1,.448-.176q.6,0,.6.65v2.039Q135.2-2,134.6-2Zm4.447-.229q-.6,0-.6-.65V-4.693a.773.773,0,0,1,.132-.475.525.525,0,0,1,.448-.176q.6,0,.6.65v1.811a.782.782,0,0,1-.132.466A.513.513,0,0,1,139.05-2.232Zm1.248,1.9a.6.6,0,0,1-.668-.686.775.775,0,0,1,.343-.58,5.494,5.494,0,0,1,.571-.422q.141-.088.483-.316t.747-.492q.4-.264.729-.457a1.259,1.259,0,0,1,.413-.193.536.536,0,0,1,.6.615q0,.141-.272.439a7.294,7.294,0,0,1-.7.659q-.431.36-.888.686t-.826.536A1.309,1.309,0,0,1,140.3-.334Z" transform="translate(146 238)" fill="#212121"/>
      <g id="グループ_608" data-name="グループ 608" transform="translate(-1 -9)">
        <path id="パス_507" data-name="パス 507" d="M-23.021.371a1.9,1.9,0,0,1-1.06-.308,2.219,2.219,0,0,1-.747-.806A2.2,2.2,0,0,1-25.1-1.816a1.89,1.89,0,0,1,.234-.937,2.6,2.6,0,0,1,.625-.742,4.362,4.362,0,0,1,.845-.547,5.4,5.4,0,0,1,.894-.352V-6.172h-2.07a.691.691,0,0,1-.361-.088.344.344,0,0,1-.146-.322.355.355,0,0,1,.146-.332A.691.691,0,0,1-24.574-7h2.07q0-.146-.01-.347a2.665,2.665,0,0,1,.01-.4.618.618,0,0,1,.117-.322.369.369,0,0,1,.313-.127.369.369,0,0,1,.313.127.618.618,0,0,1,.117.322,2.665,2.665,0,0,1,.01.4q-.01.2-.01.347h2.09a.638.638,0,0,1,.356.093.361.361,0,0,1,.142.327.349.349,0,0,1-.142.322.665.665,0,0,1-.356.088h-2.09V-4.58q.293-.049.586-.083a5.137,5.137,0,0,1,.6-.034,5.745,5.745,0,0,1,1.235.132,3.4,3.4,0,0,1,1.084.435,2.286,2.286,0,0,1,.771.8,2.4,2.4,0,0,1,.288,1.226,2.457,2.457,0,0,1-.283,1.182,2.145,2.145,0,0,1-.791.835A2.236,2.236,0,0,1-19.34.215q-.146,0-.42-.01a3.235,3.235,0,0,1-.552-.068,1.386,1.386,0,0,1-.474-.186.406.406,0,0,1-.2-.361A.535.535,0,0,1-20.9-.718a.323.323,0,0,1,.288-.122,1.8,1.8,0,0,1,.571.093,1.825,1.825,0,0,0,.581.093,1.394,1.394,0,0,0,1.064-.425,1.511,1.511,0,0,0,.4-1.079,1.661,1.661,0,0,0-.225-.908,1.516,1.516,0,0,0-.6-.542,2.757,2.757,0,0,0-.825-.264,5.725,5.725,0,0,0-.913-.073,4.4,4.4,0,0,0-.547.034q-.273.034-.547.093V-1A1.213,1.213,0,0,1-23.021.371Zm5.84-5.908a.421.421,0,0,1-.278-.1,1.33,1.33,0,0,1-.21-.22q-.254-.313-.508-.6-.068-.078-.244-.244a3.941,3.941,0,0,1-.322-.342.508.508,0,0,1-.146-.283.329.329,0,0,1,.127-.3.578.578,0,0,1,.322-.083.549.549,0,0,1,.308.122,3.348,3.348,0,0,1,.352.293q.181.171.322.322t.21.22q.088.088.215.229a2.023,2.023,0,0,1,.22.293.554.554,0,0,1,.093.288.35.35,0,0,1-.132.308A.554.554,0,0,1-17.182-5.537ZM-23.1-.459a.483.483,0,0,0,.474-.234A1.146,1.146,0,0,0-22.5-1.23V-3.594a6.208,6.208,0,0,0-.811.4,2.476,2.476,0,0,0-.7.6,1.317,1.317,0,0,0-.283.845,1.268,1.268,0,0,0,.161.61,1.4,1.4,0,0,0,.435.488A1.036,1.036,0,0,0-23.1-.459Zm8.42-4.687q-.42,0-.42-.439a.4.4,0,0,1,.083-.22,2.093,2.093,0,0,1,.186-.234q.1-.112.161-.171.381-.391.718-.811a8.72,8.72,0,0,0,.62-.879,2.161,2.161,0,0,1,.244-.332.463.463,0,0,1,.361-.166.872.872,0,0,1,.317.059.243.243,0,0,1,.151.254.509.509,0,0,1-.078.22,2.289,2.289,0,0,1-.127.21H-6.7a.6.6,0,0,1,.327.083.324.324,0,0,1,.132.3.312.312,0,0,1-.132.293A.632.632,0,0,1-6.7-6.9h-6.27l-.225.293q-.156.205-.356.454t-.415.479a4.178,4.178,0,0,1-.4.381A.543.543,0,0,1-14.68-5.146Zm1.553-.342a.449.449,0,0,1-.293-.088.333.333,0,0,1-.107-.273.33.33,0,0,1,.107-.278.468.468,0,0,1,.293-.083h5.615a.468.468,0,0,1,.293.083.33.33,0,0,1,.107.278.333.333,0,0,1-.107.273.449.449,0,0,1-.293.088ZM-6.789.771A.66.66,0,0,1-7.219.62,1.335,1.335,0,0,1-7.531.249a4.648,4.648,0,0,1-.215-.415A3.955,3.955,0,0,1-8.02-1.255q-.068-.6-.078-1.216t-.039-1.123a.566.566,0,0,0-.1-.308.325.325,0,0,0-.283-.122h-5.527a.628.628,0,0,1-.332-.083.32.32,0,0,1-.137-.3.3.3,0,0,1,.142-.293.666.666,0,0,1,.327-.078h5.869a1.036,1.036,0,0,1,.654.19.738.738,0,0,1,.244.62v.454q0,.317,0,.732t.024.84q.02.425.073.791a3.013,3.013,0,0,0,.137.591q.083.225.21.225.1,0,.122-.127a1.994,1.994,0,0,0,.029-.317,3.749,3.749,0,0,1,.029-.381.747.747,0,0,1,.107-.317A.3.3,0,0,1-6.271-1.6a.332.332,0,0,1,.371.381q0,.205-.034.537a3.978,3.978,0,0,1-.127.664A1.638,1.638,0,0,1-6.33.542.551.551,0,0,1-6.789.771Zm-7.7-.166a.372.372,0,0,1-.3-.117.472.472,0,0,1-.1-.312A.343.343,0,0,1-14.772-.1a.9.9,0,0,1,.259-.156q.732-.3,1.411-.649a8.512,8.512,0,0,0,1.3-.825,8.143,8.143,0,0,0-.771-.479q-.41-.225-.811-.42a2.5,2.5,0,0,1-.264-.156.294.294,0,0,1-.146-.254q0-.391.42-.391a.959.959,0,0,1,.322.1q.225.1.513.254t.571.317q.283.161.5.293l.317.19q.234-.215.449-.435t.42-.454q.1-.107.278-.283a.509.509,0,0,1,.337-.176q.42,0,.42.391a.608.608,0,0,1-.156.288q-.156.2-.366.43t-.4.42l-.259.259.293.181q.215.132.474.313t.508.371a3.747,3.747,0,0,1,.41.356.457.457,0,0,1,.161.273q0,.439-.459.439A.472.472,0,0,1-9.309-.01q-.146-.107-.244-.176-.361-.293-.737-.566t-.776-.518a5.746,5.746,0,0,1-.513.391q-.337.234-.747.493T-13.151.1a7.575,7.575,0,0,1-.767.366A1.616,1.616,0,0,1-14.484.605ZM-2.832.264a.436.436,0,0,1-.312-.1.667.667,0,0,1-.166-.288,3.709,3.709,0,0,1-.083-.449q-.044-.312-.078-.718t-.063-.815q-.029-.41-.044-.747t-.015-.513q0-.947.078-1.909a14.769,14.769,0,0,1,.273-1.88,1.876,1.876,0,0,1,.166-.454.413.413,0,0,1,.4-.229q.42,0,.42.391a1.419,1.419,0,0,1-.024.259q-.024.132-.054.259a11.684,11.684,0,0,0-.249,1.665q-.063.835-.063,1.675a20.885,20.885,0,0,0,.117,2.207q.02.244.059.488t.068.5a.949.949,0,0,1,.015.112q0,.063,0,.112A.393.393,0,0,1-2.832.264ZM-.664-5.781q-.352,0-.352-.381A.393.393,0,0,1-.9-6.46a.777.777,0,0,1,.283-.171A2.3,2.3,0,0,1-.3-6.719q.752-.146,1.533-.22t1.553-.073a3.891,3.891,0,0,1,.391.024,1.148,1.148,0,0,1,.42.122.336.336,0,0,1,.186.322.43.43,0,0,1-.146.371.646.646,0,0,1-.391.107q-.215,0-.43-.02T2.373-6.1a11.483,11.483,0,0,0-1.4.078Q.342-5.947-.4-5.82L-.532-5.8A.679.679,0,0,1-.664-5.781ZM2.422-.371q-.449,0-.957-.02A6.2,6.2,0,0,1,.474-.508,3.058,3.058,0,0,1-.4-.82a1.641,1.641,0,0,1-.625-.605A1.933,1.933,0,0,1-1.26-2.432a3.194,3.194,0,0,1,.039-.474.983.983,0,0,1,.176-.444.487.487,0,0,1,.42-.186.471.471,0,0,1,.283.078.316.316,0,0,1,.107.273A1.121,1.121,0,0,1-.308-2.8a1.227,1.227,0,0,0-.073.425.744.744,0,0,0,.19.527,1.3,1.3,0,0,0,.5.322,3.012,3.012,0,0,0,.654.166q.347.049.664.063t.532.015q.361,0,.713-.034t.7-.034a.384.384,0,0,1,.439.43.437.437,0,0,1-.322.439,1.522,1.522,0,0,1-.376.073q-.249.024-.5.029T2.422-.371ZM6.34.615A.386.386,0,0,1,6,.474.614.614,0,0,1,5.9.117a.473.473,0,0,1,.151-.332A1.99,1.99,0,0,1,6.4-.5q.2-.127.322-.225A8.683,8.683,0,0,0,8.693-2.769,11.215,11.215,0,0,0,9.973-5.3q.01-.039.054-.176t.1-.3q.054-.161.093-.288a.982.982,0,0,0,.039-.146q0-.156-.01-.376a1,1,0,0,0-.088-.386.3.3,0,0,0-.3-.166H8.537a.674.674,0,0,1-.391-.107.407.407,0,0,1-.156-.361.394.394,0,0,1,.156-.356.7.7,0,0,1,.391-.1h1.7a.753.753,0,0,1,.679.288,1.312,1.312,0,0,1,.19.737v.068a8.217,8.217,0,0,0,.708,3.145,7.679,7.679,0,0,0,1.909,2.6,6.162,6.162,0,0,0,.5.4l.518.366a1.6,1.6,0,0,1,.249.22.424.424,0,0,1,.112.3.628.628,0,0,1-.107.381.418.418,0,0,1-.361.146A.783.783,0,0,1,14.26.454,3.961,3.961,0,0,1,13.82.161Q13.6-.01,13.4-.181t-.3-.269A8.407,8.407,0,0,1,11.54-2.388a10.124,10.124,0,0,1-.981-2.29,12.473,12.473,0,0,1-.693,1.606,9.493,9.493,0,0,1-.879,1.377,12.056,12.056,0,0,1-1.172,1.3q-.107.1-.288.269t-.4.337A3.662,3.662,0,0,1,6.711.5.763.763,0,0,1,6.34.615ZM20.4.586a.688.688,0,0,1-.415-.117.451.451,0,0,1-.161-.391.324.324,0,0,1,.2-.317A1.863,1.863,0,0,1,20.4-.371a5.4,5.4,0,0,0,1.724-.674,2.343,2.343,0,0,0,.918-1.133,5.148,5.148,0,0,0,.278-1.846q0-.869-.054-1.753t-.1-1.753a.413.413,0,0,1,.127-.352A.521.521,0,0,1,23.646-8a.382.382,0,0,1,.4.22,1.412,1.412,0,0,1,.1.474q.039.781.083,1.572t.044,1.582a9.187,9.187,0,0,1-.137,1.689,3.448,3.448,0,0,1-.483,1.255,3.134,3.134,0,0,1-.957.923,6.941,6.941,0,0,1-1.558.7l-.361.1A1.422,1.422,0,0,1,20.4.586ZM19.047-2.139a1,1,0,0,1-.645-.2,1.19,1.19,0,0,1-.366-.508,2.758,2.758,0,0,1-.166-.664,5.366,5.366,0,0,1-.044-.664A13.986,13.986,0,0,1,17.9-5.635q.078-.742.176-1.455a2.02,2.02,0,0,1,.068-.3.784.784,0,0,1,.146-.278.336.336,0,0,1,.273-.117.632.632,0,0,1,.327.078.312.312,0,0,1,.132.293,1.83,1.83,0,0,1-.02.269q-.02.132-.049.269a13.3,13.3,0,0,0-.2,1.445q-.059.732-.059,1.455a2.464,2.464,0,0,0,.024.327.665.665,0,0,0,.122.313.341.341,0,0,0,.293.132.32.32,0,0,0,.264-.122,1.3,1.3,0,0,0,.176-.308q.078-.186.156-.366a1.069,1.069,0,0,1,.19-.3.374.374,0,0,1,.288-.122.371.371,0,0,1,.42.42,1.546,1.546,0,0,1-.132.576,2.582,2.582,0,0,1-.361.615,2.24,2.24,0,0,1-.513.483A1.037,1.037,0,0,1,19.047-2.139Z" transform="translate(120 212)" fill="#ea730c"/>
      </g>
    </g>
    <g id="長方形_312" data-name="長方形 312" transform="translate(178 304)" fill="none" stroke="#ea730c" stroke-width="1">
      <rect width="39" height="39" stroke="none"/>
      <rect x="0.5" y="0.5" width="38" height="38" fill="none"/>
    </g>
  </g>
</svg>
