<svg xmlns="http://www.w3.org/2000/svg" width="46" height="46" viewBox="0 0 46 46">
  <g id="グループ_325" data-name="グループ 325" transform="translate(-330)">
    <g id="アートワーク_29" data-name="アートワーク 29" transform="translate(353 22.772)">
      <g id="グループ_374" data-name="グループ 374" transform="translate(-9 -8.772)">
        <g id="パス_268" data-name="パス 268" transform="translate(-34.353 0)" fill="none" stroke-linecap="round" stroke-linejoin="round">
          <path d="M37.912,16.2l-2.086-2.045a1.157,1.157,0,0,1,0-1.659L48.224.343a1.213,1.213,0,0,1,1.692,0L52,2.388a1.157,1.157,0,0,1,0,1.659L39.6,16.2A1.213,1.213,0,0,1,37.912,16.2Z" stroke="none"/>
          <path d="M 38.75832748413086 15.2129487991333 L 50.99137496948242 3.21797513961792 L 49.07043838500977 1.334383726119995 L 36.8373908996582 13.32934761047363 L 38.75832748413086 15.2129487991333 M 38.75832748413086 16.54758644104004 C 38.45215225219727 16.54758644104004 38.14597320556641 16.43305587768555 37.91236114501953 16.2039966583252 L 35.82666397094727 14.15883636474609 C 35.35944366455078 13.70072650909424 35.35944366455078 12.95797634124756 35.82666397094727 12.49985599517822 L 48.22447204589844 0.3433363735675812 C 48.69169616699219 -0.1147836148738861 49.44918823242188 -0.1147836148738861 49.91640472412109 0.3433363735675812 L 52.00210189819336 2.388486385345459 C 52.46932220458984 2.846606492996216 52.46932220458984 3.589356422424316 52.00210189819336 4.047466278076172 L 39.60429382324219 16.2039966583252 C 39.37068176269531 16.43305587768555 39.06450653076172 16.54758644104004 38.75832748413086 16.54758644104004 Z" stroke="none" fill="#fff"/>
        </g>
        <line id="線_712" data-name="線 712" x2="2.316" y2="2.316" transform="translate(13.047 2.156)" fill="none" stroke="#fff" stroke-linecap="round" stroke-linejoin="round" stroke-width="1.3"/>
        <path id="パス_269" data-name="パス 269" d="M13,268.011l4.553-1.647-2.717-2.716Z" transform="translate(-13 -250.467)" fill="none" stroke="#fff" stroke-linecap="round" stroke-linejoin="round" stroke-width="1.3"/>
      </g>
    </g>
    <circle id="楕円形_12" data-name="楕円形 12" cx="23" cy="23" r="23" transform="translate(330)" fill="none"/>
  </g>
</svg>
