<svg xmlns="http://www.w3.org/2000/svg" width="46" height="46" viewBox="0 0 46 46">
  <g id="グループ_325" data-name="グループ 325" transform="translate(-324)">
    <circle id="楕円形_12" data-name="楕円形 12" cx="23" cy="23" r="23" transform="translate(324)" fill="none"/>
    <g id="アートワーク_34" data-name="アートワーク 34" transform="translate(347 22.772)">
      <g id="グループ_479" data-name="グループ 479" transform="translate(-9 -8.772)">
        <g id="パス_362" data-name="パス 362" transform="translate(-34.353 0)" fill="none" stroke-linecap="round" stroke-linejoin="round">
          <path d="M37.912,16.2l-2.086-2.045a1.157,1.157,0,0,1,0-1.659L48.224.343a1.213,1.213,0,0,1,1.692,0L52,2.388a1.157,1.157,0,0,1,0,1.659L39.6,16.2A1.213,1.213,0,0,1,37.912,16.2Z" stroke="none"/>
          <path d="M 38.75832748413086 15.21295356750488 L 50.99137496948242 3.217979907989502 L 49.07043838500977 1.334388494491577 L 36.8373908996582 13.32936191558838 L 38.75832748413086 15.21295356750488 M 38.75832748413086 16.5475902557373 C 38.45215225219727 16.5475902557373 38.14597320556641 16.43306159973145 37.91236114501953 16.20400047302246 L 35.82666397094727 14.15885162353516 C 35.35944366455078 13.70073127746582 35.35944366455078 12.95799160003662 35.82666397094727 12.49987125396729 L 48.22447204589844 0.3433411419391632 C 48.69169616699219 -0.1147788465023041 49.44918823242188 -0.1147788465023041 49.91640472412109 0.3433411419391632 L 52.00210189819336 2.388491153717041 C 52.46932220458984 2.846611261367798 52.46932220458984 3.589351177215576 52.00210189819336 4.047471046447754 L 39.60429382324219 16.20400047302246 C 39.37068176269531 16.43306159973145 39.06450653076172 16.5475902557373 38.75832748413086 16.5475902557373 Z" stroke="none" fill="#ea730c"/>
        </g>
        <line id="線_855" data-name="線 855" x2="2.316" y2="2.316" transform="translate(13.047 2.156)" fill="none" stroke="#ea730c" stroke-linecap="round" stroke-linejoin="round" stroke-width="1.3"/>
        <path id="パス_363" data-name="パス 363" d="M13,268.011l4.553-1.647-2.717-2.716Z" transform="translate(-13 -250.467)" fill="none" stroke="#ea730c" stroke-linecap="round" stroke-linejoin="round" stroke-width="1.3"/>
      </g>
    </g>
  </g>
</svg>
