<svg xmlns="http://www.w3.org/2000/svg" xmlns:xlink="http://www.w3.org/1999/xlink" width="166" height="275" viewBox="0 0 166 275">
  <defs>
    <filter id="長方形_311" x="1" y="0" width="153" height="275" filterUnits="userSpaceOnUse">
      <feOffset dy="3" input="SourceAlpha"/>
      <feGaussianBlur stdDeviation="3" result="blur"/>
      <feFlood flood-opacity="0.161"/>
      <feComposite operator="in" in2="blur"/>
      <feComposite in="SourceGraphic"/>
    </filter>
    <filter id="長方形_166" x="1" y="153" width="154" height="101" filterUnits="userSpaceOnUse">
      <feOffset dy="3" input="SourceAlpha"/>
      <feGaussianBlur stdDeviation="5" result="blur-2"/>
      <feFlood flood-opacity="0.161"/>
      <feComposite operator="in" in2="blur-2"/>
      <feComposite in="SourceGraphic"/>
    </filter>
    <filter id="IMG20210913174725" x="0" y="15" width="155" height="156" filterUnits="userSpaceOnUse">
      <feOffset dy="3" input="SourceAlpha"/>
      <feGaussianBlur stdDeviation="5" result="blur-3"/>
      <feFlood flood-opacity="0.161"/>
      <feComposite operator="in" in2="blur-3"/>
      <feComposite in="SourceGraphic"/>
    </filter>
    <filter id="長方形_224" x="95" y="119" width="71" height="71" filterUnits="userSpaceOnUse">
      <feOffset dy="5" input="SourceAlpha"/>
      <feGaussianBlur stdDeviation="9" result="blur-4"/>
      <feFlood flood-opacity="0.141"/>
      <feComposite operator="in" in2="blur-4"/>
      <feComposite in="SourceGraphic"/>
    </filter>
  </defs>
  <g id="グループ_612" data-name="グループ 612" transform="translate(-3985 -2715)">
    <g transform="matrix(1, 0, 0, 1, 3985, 2715)" filter="url(#長方形_311)">
      <rect id="長方形_311-2" data-name="長方形 311" width="135" height="257" transform="translate(10 6)" fill="#fff"/>
    </g>
    <path id="長方形_310" data-name="長方形 310" d="M0,0H135a0,0,0,0,1,0,0V14a19,19,0,0,1-19,19H0a0,0,0,0,1,0,0V0A0,0,0,0,1,0,0Z" transform="translate(3995 2721)" fill="#ea730c"/>
    <g id="グループ_611" data-name="グループ 611" transform="translate(4000.668 2879.715)">
      <g transform="matrix(1, 0, 0, 1, -15.67, -164.72)" filter="url(#長方形_166)">
        <rect id="長方形_166-2" data-name="長方形 166" width="124" height="71" rx="20" transform="translate(16 165)" fill="#fff"/>
      </g>
      <text id="_20YY_M_D_" data-name="20YY / M / D " transform="translate(5.332 11.285)" fill="#212121" font-size="4" font-family="GenSenRoundedJP-R, GenSenRounded JP" letter-spacing="0.05em"><tspan x="0" y="0">20YY / M / D </tspan></text>
      <text id="場所" transform="translate(50.332 11.285)" fill="#212121" font-size="5" font-family="GenSenRoundedJP-R, GenSenRounded JP" letter-spacing="0.05em"><tspan x="0" y="0">場所</tspan></text>
      <g id="グループ_271" data-name="グループ 271" transform="translate(46.031 7.222)">
        <g id="パス_201" data-name="パス 201" transform="translate(0)" fill="#fff">
          <path d="M 1.734280586242676 3.787015199661255 C 1.147284388542175 3.114705562591553 0.5000005960464478 2.208935976028442 0.5000005960464478 1.773426651954651 C 0.5000005960464478 1.071256756782532 1.053700566291809 0.4999967217445374 1.734280586242676 0.4999967217445374 C 2.414860486984253 0.4999967217445374 2.968560695648193 1.071256756782532 2.968560695648193 1.773426651954651 C 2.968560695648193 2.208935976028442 2.321276664733887 3.114705562591553 1.734280586242676 3.787015199661255 Z" stroke="none"/>
          <path d="M 1.734280586242676 0.9999966621398926 C 1.331031560897827 0.9999966621398926 1.002656221389771 1.3441321849823 1.000017166137695 1.768242120742798 C 1.021075248718262 1.981829166412354 1.326525211334229 2.479681253433228 1.734267592430115 3.003013134002686 C 2.14207935333252 2.479605436325073 2.447488069534302 1.981809139251709 2.468544006347656 1.768242120742798 C 2.465904951095581 1.3441321849823 2.137529611587524 0.9999966621398926 1.734280586242676 0.9999966621398926 M 1.734280586242676 -3.337860107421875e-06 C 2.692100524902344 -3.337860107421875e-06 3.468560695648193 0.7939867973327637 3.468560695648193 1.77342677116394 C 3.468560695648193 2.752866744995117 1.734280586242676 4.524996757507324 1.734280586242676 4.524996757507324 C 1.734280586242676 4.524996757507324 4.76837158203125e-07 2.752866744995117 4.76837158203125e-07 1.77342677116394 C 4.76837158203125e-07 0.7939867973327637 0.7764606475830078 -3.337860107421875e-06 1.734280586242676 -3.337860107421875e-06 Z" stroke="none" fill="#9e9e9e"/>
        </g>
        <g id="楕円形_73" data-name="楕円形 73" transform="translate(1.014 1.072)" fill="#fff" stroke="#9e9e9e" stroke-width="1">
          <ellipse cx="0.75" cy="0.75" rx="0.75" ry="0.75" stroke="none"/>
          <ellipse cx="0.75" cy="0.75" rx="0.25" ry="0.25" fill="none"/>
        </g>
      </g>
      <g id="グループ_287" data-name="グループ 287" transform="translate(101.323 6.377)">
        <rect id="長方形_198" data-name="長方形 198" width="18" height="6" rx="3" transform="translate(0.009 -0.092)" fill="#ea730c"/>
        <text id="和食" transform="translate(5.009 3.908)" fill="#fff" font-size="3" font-family="GenSenRoundedJP-R, GenSenRounded JP" letter-spacing="0.05em"><tspan x="0" y="0">和食</tspan></text>
      </g>
    </g>
    <g transform="matrix(1, 0, 0, 1, 3985, 2715)" filter="url(#IMG20210913174725)">
      <rect id="IMG20210913174725-2" data-name="IMG20210913174725" width="125" height="126" rx="28" transform="translate(15 27)" fill="#fff"/>
    </g>
    <g id="header" transform="translate(3995 2721)">
      <rect id="長方形_158" data-name="長方形 158" width="135" height="16" fill="#ea730c" opacity="0.9"/>
      <g id="グループ_441" data-name="グループ 441" transform="translate(20.548 2.834)">
        <g id="グループ_233" data-name="グループ 233" transform="translate(0 0)">
          <circle id="スマホ女子" cx="5" cy="5" r="5" transform="translate(0.452 0.166)" fill="#fff"/>
        </g>
        <text id="_" data-name="＊＊＊＊＊＊＊" transform="translate(13.452 7.166)" fill="#fff" font-size="4" font-family="GenSenRoundedJP-R, GenSenRounded JP" letter-spacing="0.05em"><tspan x="0" y="0">＊＊＊＊＊＊＊</tspan></text>
      </g>
      <g id="_2" data-name="←" transform="translate(4.96 1.417)">
        <g id="グループ_6" data-name="グループ 6" transform="translate(3.766 4.28)">
          <path id="パス_1" data-name="パス 1" d="M235.308,14,233,16.308l2.308,2.308" transform="translate(-233 -14)" fill="none" stroke="#fff" stroke-linecap="round" stroke-linejoin="round" stroke-width="2"/>
          <path id="パス_2" data-name="パス 2" d="M241,22h6.923" transform="translate(-241 -19.692)" fill="none" stroke="#fff" stroke-linecap="round" stroke-width="2"/>
        </g>
        <ellipse id="楕円形_8" data-name="楕円形 8" cx="7" cy="7.5" rx="7" ry="7.5" transform="translate(0.04 -0.417)" fill="none"/>
      </g>
    </g>
    <g id="コンポーネント_14_3" data-name="コンポーネント 14 – 3" transform="translate(4107 2856)">
      <g transform="matrix(1, 0, 0, 1, -122, -141)" filter="url(#長方形_224)">
        <rect id="長方形_224-2" data-name="長方形 224" width="17" height="17" rx="8.5" transform="translate(122 141)" fill="#fff"/>
      </g>
      <g id="アートワーク_33" data-name="アートワーク 33" transform="translate(8.653 8.653)">
        <path id="パス_271" data-name="パス 271" d="M3.606,0,4.72,2.258l2.491.362-1.8,1.757.426,2.481L3.606,5.687,1.377,6.858,1.8,4.377,0,2.62l2.491-.362Z" transform="translate(-3.606 -3.429)" fill="none" stroke="#707070" stroke-linecap="round" stroke-linejoin="round" stroke-width="0.529"/>
      </g>
    </g>
    <g id="グループ_136" data-name="グループ 136" transform="translate(4004.211 2748.9)">
      <rect id="長方形_103" data-name="長方形 103" width="97.897" height="97.897" rx="14" transform="matrix(0.996, 0.087, -0.087, 0.996, 20.095, 0)" fill="#ffeac9"/>
      <rect id="長方形_106" data-name="長方形 106" width="97.897" height="97.897" rx="14" transform="matrix(0.999, -0.035, 0.035, 0.999, 0, 14.29)" fill="#f2f2f2"/>
      <g id="グループ_141" data-name="グループ 141" transform="translate(14.974 38.35)">
        <g id="グループ_140" data-name="グループ 140" transform="translate(14.076)">
          <circle id="楕円形_42" data-name="楕円形 42" cx="21.611" cy="21.611" r="21.611" fill="#fff"/>
          <g id="楕円形_43" data-name="楕円形 43" transform="translate(4.96 4.251)" fill="none" stroke="#f2f2f2" stroke-width="1">
            <circle cx="17.005" cy="17.005" r="17.005" stroke="none"/>
            <circle cx="17.005" cy="17.005" r="16.505" fill="none"/>
          </g>
        </g>
        <path id="合体_10" data-name="合体 10" d="M2.789,42.742v-24.6A5.845,5.845,0,0,1,.041,13.155,1.674,1.674,0,0,1,0,12.784V1.463A1.362,1.362,0,0,1,1.23,0,1.361,1.361,0,0,1,2.46,1.463v8.731h.985V1.463A1.362,1.362,0,0,1,4.675,0,1.362,1.362,0,0,1,5.9,1.463v8.731H7.216V1.463A1.362,1.362,0,0,1,8.446,0a1.362,1.362,0,0,1,1.23,1.463v11.32a1.728,1.728,0,0,1-.041.376,5.8,5.8,0,0,1-2.912,5.072v24.51a2.179,2.179,0,0,1-1.967,2.342A2.179,2.179,0,0,1,2.789,42.742Z" transform="translate(0 5.36) rotate(-3)" fill="#fff"/>
        <path id="合体_9" data-name="合体 9" d="M3.444,43.522V18.486C1.387,17.13,0,13.74,0,9.562,0,4.111,2.362,0,5.494,0s5.494,4.111,5.494,9.562c0,4.288-1.461,7.746-3.608,9.027V43.522a2.179,2.179,0,0,1-1.967,2.341A2.179,2.179,0,0,1,3.444,43.522Z" transform="translate(60.06 1.723) rotate(-2)" fill="#fff"/>
      </g>
    </g>
  </g>
</svg>
