<svg xmlns="http://www.w3.org/2000/svg" width="378" height="362.965" viewBox="0 0 378 362.965">
  <g id="グループ_607" data-name="グループ 607" transform="translate(1 -95.517)">
    <g id="グループ_603" data-name="グループ 603" transform="translate(0 -414.983)">
      <rect id="IMG20210913174725" width="83.965" height="83.965" rx="8" transform="translate(14 510.5)" fill="#fafafa"/>
      <rect id="IMG_20210410_165903_872" width="83.965" height="83.965" rx="8" transform="translate(102.012 510.5)" fill="#fafafa"/>
      <rect id="IMG20210606122108" width="83.965" height="83.965" rx="8" transform="translate(190.023 510.5)" fill="#fafafa"/>
      <rect id="IMG20210810111612" width="83.965" height="83.965" rx="8" transform="translate(278.035 510.5)" fill="#fafafa"/>
    </g>
    <g id="グループ_604" data-name="グループ 604" transform="translate(0 -326.983)">
      <rect id="IMG20210913174725-2" data-name="IMG20210913174725" width="83.965" height="83.965" rx="8" transform="translate(14 510.5)" fill="#fafafa"/>
      <rect id="IMG_20210410_165903_872-2" data-name="IMG_20210410_165903_872" width="83.965" height="83.965" rx="8" transform="translate(102.012 510.5)" fill="#fafafa"/>
      <rect id="IMG20210606122108-2" data-name="IMG20210606122108" width="83.965" height="83.965" rx="8" transform="translate(190.023 510.5)" fill="#fafafa"/>
      <rect id="IMG20210810111612-2" data-name="IMG20210810111612" width="83.965" height="83.965" rx="8" transform="translate(278.035 510.5)" fill="#fafafa"/>
    </g>
    <g id="グループ_605" data-name="グループ 605" transform="translate(0 -238.982)">
      <rect id="IMG20210913174725-3" data-name="IMG20210913174725" width="83.965" height="83.965" rx="8" transform="translate(14 510.5)" fill="#fcfcfc"/>
      <rect id="IMG_20210410_165903_872-3" data-name="IMG_20210410_165903_872" width="83.965" height="83.965" rx="8" transform="translate(102.012 510.5)" fill="#fcfcfc"/>
      <rect id="IMG20210606122108-3" data-name="IMG20210606122108" width="83.965" height="83.965" rx="8" transform="translate(190.023 510.5)" fill="#fcfcfc"/>
      <rect id="IMG20210810111612-3" data-name="IMG20210810111612" width="83.965" height="83.965" rx="8" transform="translate(278.035 510.5)" fill="#fcfcfc"/>
    </g>
    <g id="グループ_606" data-name="グループ 606" transform="translate(0 -150.982)">
      <rect id="IMG20210913174725-4" data-name="IMG20210913174725" width="83.965" height="83.965" rx="8" transform="translate(14 510.5)" fill="#fcfcfc"/>
      <rect id="IMG_20210410_165903_872-4" data-name="IMG_20210410_165903_872" width="83.965" height="83.965" rx="8" transform="translate(102.012 510.5)" fill="#fcfcfc"/>
      <rect id="IMG20210606122108-4" data-name="IMG20210606122108" width="83.965" height="83.965" rx="8" transform="translate(190.023 510.5)" fill="#fcfcfc"/>
      <rect id="IMG20210810111612-4" data-name="IMG20210810111612" width="83.965" height="83.965" rx="8" transform="translate(278.035 510.5)" fill="#fcfcfc"/>
    </g>
  </g>
</svg>
