<svg xmlns="http://www.w3.org/2000/svg" width="200.423" height="43.408" viewBox="0 0 200.423 43.408">
  <g id="グループ_131" data-name="グループ 131" transform="translate(-94.4 -203.592)">
    <path id="パス_508" data-name="パス 508" d="M8.121.756A3.276,3.276,0,0,1,7.031.571,3.773,3.773,0,0,1,6.047.053Q5.871-.07,5.634-.264a2.389,2.389,0,0,1-.413-.431.806.806,0,0,1-.176-.483q0-.809.756-.809a.978.978,0,0,1,.589.264q.325.264.738.536a1.64,1.64,0,0,0,.923.272,1.165,1.165,0,0,0,.967-.519,4.051,4.051,0,0,0,.615-1.318,10.754,10.754,0,0,0,.334-1.687q.105-.888.141-1.644t.035-1.16A5.888,5.888,0,0,0,9.984-8.71a1.525,1.525,0,0,0-.633-.923A2.629,2.629,0,0,0,7.91-9.949q-.387,0-.8.026t-.817.044q-.246,1.02-.6,2.25T4.922-5.115q-.422,1.283-.9,2.452a15.822,15.822,0,0,1-1,2.065,1.807,1.807,0,0,1-.316.422.667.667,0,0,1-.492.193.684.684,0,0,1-.773-.773.953.953,0,0,1,.114-.422q.114-.229.185-.387a33.739,33.739,0,0,0,1.731-3.99A40.79,40.79,0,0,0,4.729-9.721L1.863-9.3a.522.522,0,0,1-.536-.193.913.913,0,0,1-.185-.562.605.605,0,0,1,.369-.615,2.938,2.938,0,0,1,.721-.211q.721-.088,1.441-.185T5.1-11.25l.563-2.76a1.444,1.444,0,0,1,.246-.554.614.614,0,0,1,.527-.237q.738,0,.738.7a5.772,5.772,0,0,1-.185,1.354q-.185.756-.325,1.354l.65-.035q.334-.018.65-.018a4.341,4.341,0,0,1,2.347.519,2.634,2.634,0,0,1,1.1,1.494,8.148,8.148,0,0,1,.3,2.364q0,.58-.044,1.371t-.176,1.67a14.437,14.437,0,0,1-.369,1.731,6.612,6.612,0,0,1-.633,1.538A3.422,3.422,0,0,1,9.51.343,2.331,2.331,0,0,1,8.121.756Zm7.928-4.131a.6.6,0,0,1-.562-.316,2.9,2.9,0,0,1-.264-.633q-.369-1.441-.773-2.848a12.958,12.958,0,0,0-1.125-2.707q-.07-.141-.272-.51t-.369-.738a1.532,1.532,0,0,1-.167-.527.605.605,0,0,1,.22-.527.924.924,0,0,1,.554-.158q.316,0,.7.483a7.834,7.834,0,0,1,.8,1.283q.413.8.791,1.731T16.269-7q.308.905.483,1.635a5.152,5.152,0,0,1,.176,1.081Q16.928-3.375,16.049-3.375Zm15.4-8.895a1.579,1.579,0,0,1-.272-.026q-.149-.026-.29-.044a4.9,4.9,0,0,1-.615-.114q-.316-.079-.615-.132-.914-.141-1.89-.264a17.946,17.946,0,0,0-1.907-.141h-.9a1.858,1.858,0,0,1-.712-.141.562.562,0,0,1-.343-.58.669.669,0,0,1,.413-.7,2.364,2.364,0,0,1,.853-.158q1.459,0,2.944.105a19.884,19.884,0,0,1,2.909.422q.229.053.536.149a1.613,1.613,0,0,1,.536.281.61.61,0,0,1,.229.5Q32.33-12.27,31.451-12.27ZM25.72.668a1.9,1.9,0,0,1-.826-.176.717.717,0,0,1-.369-.721A.653.653,0,0,1,24.8-.835,1.238,1.238,0,0,1,25.457-1q.352,0,.686.009t.668.009q.668,0,1.494-.079a10.424,10.424,0,0,0,1.661-.3A6.271,6.271,0,0,0,31.5-1.986a3.381,3.381,0,0,0,1.125-1.02A2.578,2.578,0,0,0,33.05-4.5,2.271,2.271,0,0,0,32.6-6.012a2.366,2.366,0,0,0-1.187-.738,5.735,5.735,0,0,0-1.582-.211,7.733,7.733,0,0,0-3.252.659A15,15,0,0,0,23.734-4.57q-.176.123-.343.229a.725.725,0,0,1-.4.105,1.149,1.149,0,0,1-.58-.141A.554.554,0,0,1,22.17-4.9v-.088l.387-5.959a1.525,1.525,0,0,1,.211-.686.667.667,0,0,1,.615-.281,1.528,1.528,0,0,1,.58.114.466.466,0,0,1,.281.483v.07L23.91-6.68A15.616,15.616,0,0,1,26.7-7.963a9.126,9.126,0,0,1,3.015-.51,9.983,9.983,0,0,1,1.96.185,4.807,4.807,0,0,1,1.635.633A3.188,3.188,0,0,1,34.43-6.434a4.114,4.114,0,0,1,.413,1.951,4.212,4.212,0,0,1-.606,2.329,4.526,4.526,0,0,1-1.6,1.5,8.214,8.214,0,0,1-2.206.844,16.536,16.536,0,0,1-2.443.378Q26.757.668,25.72.668Zm17.494.668a.713.713,0,0,1-.589-.229.951.951,0,0,1-.185-.615A.746.746,0,0,1,42.6.035a.839.839,0,0,1,.325-.2,4.184,4.184,0,0,1,.5-.167q.264-.07.387-.105a18.045,18.045,0,0,0,2-.756A9.717,9.717,0,0,0,47.644-2.25a10.411,10.411,0,0,1-.765-.826,13.537,13.537,0,0,1-.844-1.116,8.39,8.39,0,0,1-.686-1.2,2.543,2.543,0,0,1-.272-1.046.42.42,0,0,1,.29-.448,1.8,1.8,0,0,1,.571-.1.479.479,0,0,1,.439.229,2.523,2.523,0,0,1,.229.475,6.822,6.822,0,0,0,.879,1.67,8.411,8.411,0,0,0,1.3,1.389q.264-.264.686-.782t.844-1.143a10.172,10.172,0,0,0,.7-1.2,2.26,2.26,0,0,0,.281-.94.186.186,0,0,0-.088-.185A.467.467,0,0,0,51-7.506H44.5a18.489,18.489,0,0,1-1.055,2.883,16.974,16.974,0,0,1-1.529,2.654l-.439.606q-.3.413-.686.853a7.654,7.654,0,0,1-.756.756A1.063,1.063,0,0,1,39.4.563.8.8,0,0,1,38.732.3a1.093,1.093,0,0,1-.211-.7.919.919,0,0,1,.272-.562q.272-.316.431-.475a14.84,14.84,0,0,0,2.962-4.491A20.924,20.924,0,0,0,43.6-11.145H39.575a1.285,1.285,0,0,1-.668-.167.646.646,0,0,1-.281-.606.646.646,0,0,1,.281-.606,1.285,1.285,0,0,1,.668-.167h4.166l.088-1.564a1.036,1.036,0,0,1,.237-.65.855.855,0,0,1,.642-.211.919.919,0,0,1,.571.167.652.652,0,0,1,.22.554,7.308,7.308,0,0,1-.053.853q-.053.448-.088.853h8.7a1.228,1.228,0,0,1,.668.167.661.661,0,0,1,.264.606.661.661,0,0,1-.264.606,1.228,1.228,0,0,1-.668.167H45.183l-.334,2.162h6.662a3.711,3.711,0,0,1,.712.07,1.249,1.249,0,0,1,.606.29.838.838,0,0,1,.246.659A3.815,3.815,0,0,1,52.768-6.6,11.222,11.222,0,0,1,51.977-5q-.483.817-.993,1.512a7.524,7.524,0,0,1-.932,1.081L50-2.373a9.9,9.9,0,0,0,1.854,1.046,19.176,19.176,0,0,0,2,.747,4.151,4.151,0,0,1,.5.167,1.826,1.826,0,0,1,.51.3.583.583,0,0,1,.22.466,1.137,1.137,0,0,1-.176.659.715.715,0,0,1-.633.255,2.888,2.888,0,0,1-.905-.193q-.554-.193-1.213-.5t-1.3-.659q-.642-.352-1.178-.677T48.839-1.3A12.71,12.71,0,0,1,47.7-.519q-.721.448-1.556.87a14.782,14.782,0,0,1-1.608.7A3.981,3.981,0,0,1,43.214,1.336ZM71.026-12.006q-.6,0-.6-.65v-1.582q0-.65.6-.65.615,0,.615.65v1.582Q71.641-12.006,71.026-12.006Zm2,0q-.615,0-.615-.65v-1.582q0-.65.615-.65t.615.65v1.582Q73.645-12.006,73.03-12.006ZM59.231.668q-.879,0-.879-.844a1.457,1.457,0,0,1,.141-.492q.141-.334.29-.677T59-1.828a42.419,42.419,0,0,0,1.714-4.491q.729-2.294,1.274-4.632L62.009-11H58.88a1.292,1.292,0,0,1-.659-.158.631.631,0,0,1-.272-.6.607.607,0,0,1,.281-.58,1.3,1.3,0,0,1,.65-.158h3.445q.053-.264.105-.642a6.481,6.481,0,0,1,.149-.747,1.522,1.522,0,0,1,.308-.615.724.724,0,0,1,.58-.246q.773,0,.773.738a3.522,3.522,0,0,1-.088.765q-.088.4-.176.747H68.6a1.341,1.341,0,0,1,.668.158.625.625,0,0,1,.281.6.6.6,0,0,1-.281.589A1.405,1.405,0,0,1,68.6-11H63.661l-.018.053q-.088.352-.29,1.143t-.5,1.854q-.3,1.063-.65,2.241T61.464-3.4q-.387,1.134-.782,2.057A8.976,8.976,0,0,1,59.917.123Q59.548.668,59.231.668Zm6.926-7.91q-.633,0-.633-.668a.718.718,0,0,1,.387-.615,3.335,3.335,0,0,1,1.011-.4,10.842,10.842,0,0,1,1.354-.229Q69-9.229,69.7-9.264T70.921-9.3h.738a1.667,1.667,0,0,1,.756.167.665.665,0,0,1,.334.659.712.712,0,0,1-.3.659,1.38,1.38,0,0,1-.738.185H70.3q-.589,0-1.107.018t-1.1.079q-.58.062-1.371.2-.123.018-.281.053A1.314,1.314,0,0,1,66.157-7.242Zm3.727,7.8q-.633,0-1.4-.062A10.945,10.945,0,0,1,66.974.272,5,5,0,0,1,65.6-.246a2.9,2.9,0,0,1-1-.914,2.5,2.5,0,0,1-.378-1.424,5.15,5.15,0,0,1,.053-.659,4.35,4.35,0,0,1,.176-.773,1.832,1.832,0,0,1,.352-.642.753.753,0,0,1,.6-.264.847.847,0,0,1,.51.141.548.548,0,0,1,.193.475,2.221,2.221,0,0,1-.158.747,2.415,2.415,0,0,0-.158.835,1.024,1.024,0,0,0,.343.8,2.43,2.43,0,0,0,.879.483,6.274,6.274,0,0,0,1.134.255q.6.079,1.125.1t.844.018A6.834,6.834,0,0,0,71.2-1.16a6.834,6.834,0,0,1,1.09-.088,1.019,1.019,0,0,1,.642.185.722.722,0,0,1,.237.606.71.71,0,0,1-.4.659,2.645,2.645,0,0,1-.967.29A9.067,9.067,0,0,1,70.7.563ZM82.6.809a1.516,1.516,0,0,1-.773-.193.725.725,0,0,1-.334-.686.657.657,0,0,1,.246-.6,1.151,1.151,0,0,1,.633-.158q.316,0,.624.026t.624.026a12.24,12.24,0,0,0,1.661-.114Q86.112-1,86.92-1.2a6.614,6.614,0,0,0,1.389-.519,2.725,2.725,0,0,0,1.02-.888,2.458,2.458,0,0,0,.387-1.424,2.127,2.127,0,0,0-.492-1.468,2.928,2.928,0,0,0-1.239-.817,4.589,4.589,0,0,0-1.538-.264,8.467,8.467,0,0,0-2.856.466,8.758,8.758,0,0,0-2.522,1.433,2.464,2.464,0,0,1-.308.229.662.662,0,0,1-.36.105,1,1,0,0,1-.58-.158.616.616,0,0,1-.229-.545,1.336,1.336,0,0,1,.088-.466q.088-.237.158-.448a23.525,23.525,0,0,0,.686-2.47q.281-1.274.51-2.5H78.043a1.332,1.332,0,0,1-.677-.167.639.639,0,0,1-.29-.606.664.664,0,0,1,.281-.624,1.321,1.321,0,0,1,.686-.167H81.33v-.053q.018-.088.062-.36l.1-.6q.053-.325.114-.58a1.057,1.057,0,0,1,.114-.325.79.79,0,0,1,.686-.352q.756,0,.756.7a4.114,4.114,0,0,1-.079.791q-.079.4-.149.773H90.4a1.321,1.321,0,0,1,.686.167.664.664,0,0,1,.281.624.646.646,0,0,1-.281.606,1.321,1.321,0,0,1-.686.167H82.649l-.967,4.2a8.475,8.475,0,0,1,2.232-1,8.785,8.785,0,0,1,2.408-.334,7.906,7.906,0,0,1,1.907.229,5.141,5.141,0,0,1,1.644.712,3.5,3.5,0,0,1,1.143,1.266,3.972,3.972,0,0,1,.422,1.907,3.746,3.746,0,0,1-.6,2.171A4.312,4.312,0,0,1,89.249-.4a8.84,8.84,0,0,1-2.171.782,15.528,15.528,0,0,1-2.347.343Q83.563.809,82.6.809ZM104.7.756q-.6,0-1.38-.026A13.1,13.1,0,0,1,101.742.58a5.839,5.839,0,0,1-1.468-.422,2.745,2.745,0,0,1-1.09-.835,2.226,2.226,0,0,1-.413-1.4A2.83,2.83,0,0,1,99.3-3.762a5.572,5.572,0,0,1,1.336-1.31,10.255,10.255,0,0,1,1.705-.976q.9-.4,1.635-.668a1.5,1.5,0,0,0-.413-.932,1.315,1.315,0,0,0-.958-.334,4.426,4.426,0,0,0-1.784.334,5.094,5.094,0,0,0-1.327.826,9.745,9.745,0,0,0-.984.984q-.422.492-.747.826a.9.9,0,0,1-.606.334q-.756,0-.756-.7a.913.913,0,0,1,.22-.536q.22-.29.378-.466a15.351,15.351,0,0,0,1.828-2.391q.809-1.3,1.582-2.566H97.313a1.208,1.208,0,0,1-.633-.158.6.6,0,0,1-.264-.562.6.6,0,0,1,.264-.562,1.208,1.208,0,0,1,.633-.158h3.938q.105-.193.255-.536a7.477,7.477,0,0,1,.343-.686,2.667,2.667,0,0,1,.431-.58.722.722,0,0,1,.519-.237.965.965,0,0,1,.545.141.568.568,0,0,1,.211.51,1.131,1.131,0,0,1-.132.422q-.132.281-.29.563l-.229.4h5.449a1.208,1.208,0,0,1,.633.158.6.6,0,0,1,.264.563.6.6,0,0,1-.264.563,1.208,1.208,0,0,1-.633.158h-6.311q-1.02,1.652-2.127,3.182a8.751,8.751,0,0,1,1.4-.817,3.615,3.615,0,0,1,1.556-.36,2.364,2.364,0,0,1,2.566,2.145l.738-.211q.492-.141,1.09-.308t1.2-.325q.6-.158,1.063-.255a3.783,3.783,0,0,1,.659-.1.652.652,0,0,1,.554.22.919.919,0,0,1,.167.571.6.6,0,0,1-.211.5,1.282,1.282,0,0,1-.5.237q-.29.07-.536.123-.7.158-1.4.308t-1.4.325a6.427,6.427,0,0,0-.659.176q-.325.105-.659.193V-3.3a1.292,1.292,0,0,1-.158.659.631.631,0,0,1-.6.272.613.613,0,0,1-.58-.272,1.292,1.292,0,0,1-.158-.659V-5.2q-.422.176-1.02.457a9.644,9.644,0,0,0-1.187.668,4.261,4.261,0,0,0-.976.861,1.607,1.607,0,0,0-.387,1.037.969.969,0,0,0,.325.773,2.209,2.209,0,0,0,.826.431,5.117,5.117,0,0,0,1.072.193q.571.044,1.081.044h.826q.545,0,1.1-.009t1.1-.026q.457-.035.932-.088a8.434,8.434,0,0,1,.932-.053q.791,0,.791.756a.556.556,0,0,1-.316.554,2.39,2.39,0,0,1-.65.2,13.2,13.2,0,0,1-1.89.149Q105.627.756,104.7.756Zm16.492-2.514a1.212,1.212,0,0,1-1.371-1.371v-8.807a1.22,1.22,0,0,1,1.371-1.389h1.635l.281-.826a6.624,6.624,0,0,1,.272-.7q.132-.281.659-.281a1.434,1.434,0,0,1,.554.105.44.44,0,0,1,.255.457,1.133,1.133,0,0,1-.105.4q-.105.255-.229.492a3.126,3.126,0,0,1-.211.36h3.27a1.813,1.813,0,0,1,1.125.3,1.306,1.306,0,0,1,.387,1.09v2.109a1.22,1.22,0,0,1-1.371,1.389H121.24v1.529h6.838a1.854,1.854,0,0,1,1.125.29,1.279,1.279,0,0,1,.387,1.081v2.408a1.212,1.212,0,0,1-1.371,1.371Zm-3.533-10.248a.967.967,0,0,1-.492-.158q-.264-.158-.457-.281a3.966,3.966,0,0,0-.431-.22,5.957,5.957,0,0,1-.6-.316,2.947,2.947,0,0,1-.527-.4.6.6,0,0,1-.22-.422q0-.738.773-.738a2.1,2.1,0,0,1,.686.167,6.077,6.077,0,0,1,.905.439,4.319,4.319,0,0,1,.791.58.843.843,0,0,1,.325.571A.676.676,0,0,1,117.654-12.006Zm3.586,2.268h5.854a.565.565,0,0,0,.4-.149.519.519,0,0,0,.158-.4v-1.178a.5.5,0,0,0-.562-.562H121.8a.5.5,0,0,0-.562.563ZM127.6.949q-1.09,0-2.2-.018t-2.2-.053q-.686-.018-1.389-.044T120.431.721A6.111,6.111,0,0,1,118.84.246,4.049,4.049,0,0,1,117.5-.721q-.211.158-.545.413t-.712.519a6.377,6.377,0,0,1-.738.448,1.417,1.417,0,0,1-.624.185q-.756,0-.756-.809a.727.727,0,0,1,.422-.7l1.881-.932V-6.4a.493.493,0,0,0-.22-.483,1.024,1.024,0,0,0-.536-.1q-.316.018-.65.018a1.415,1.415,0,0,1-.624-.132q-.272-.132-.272-.624a.653.653,0,0,1,.738-.738h1.617q1.389,0,1.389,1.441V-2.18a2.857,2.857,0,0,0,1.169,1.02,6.011,6.011,0,0,0,1.591.5,11.472,11.472,0,0,0,1.731.167q.87.018,1.573.018,1.459,0,2.927-.044t2.909-.044a1.521,1.521,0,0,1,.659.123q.255.123.255.615a.813.813,0,0,1-.1.413.613.613,0,0,1-.343.255,2.9,2.9,0,0,1-.483.062q-.36.026-.809.035t-.817.009Zm-5.8-4.008h5.766a.505.505,0,0,0,.58-.562V-5.045a.505.505,0,0,0-.58-.562H121.24v1.986A.5.5,0,0,0,121.8-3.059Zm15.859,4.113a1.245,1.245,0,0,1-.721-.193.752.752,0,0,1-.281-.668.8.8,0,0,1,.193-.624.788.788,0,0,1,.51-.176q.316-.009.65-.009a1.757,1.757,0,0,0,.633-.114.89.89,0,0,0,.475-.5,2.361,2.361,0,0,0,.149-.562q.062-.369.105-.8t.07-.817q.026-.387.044-.6l.316-5.924q.053-.721-.721-.721h-1.617q-.035,1.371-.167,2.883a28.587,28.587,0,0,1-.422,3A14.657,14.657,0,0,1,136.062-2q-.123.281-.343.765a10.019,10.019,0,0,1-.519.984,4.111,4.111,0,0,1-.65.844,1.053,1.053,0,0,1-.738.343q-.791,0-.791-.844a.728.728,0,0,1,.141-.439q.141-.193.281-.369a8.119,8.119,0,0,0,1.283-2.162,13.987,13.987,0,0,0,.756-2.54,21.7,21.7,0,0,0,.36-2.654q.1-1.327.1-2.522v-.053h-1.881a1.19,1.19,0,0,1-.659-.176.675.675,0,0,1-.272-.615.636.636,0,0,1,.29-.615,1.391,1.391,0,0,1,.677-.158h1.881l.053-1.986a1.189,1.189,0,0,1,.185-.642.692.692,0,0,1,.606-.237.707.707,0,0,1,.791.809q0,.51-.026,1.028t-.044,1.028h1.986a2.107,2.107,0,0,1,1.31.369,1.474,1.474,0,0,1,.483,1.248q0,1.6-.1,3.2t-.185,3.182q-.018.352-.062.923t-.114,1.213q-.07.642-.176,1.2a4.106,4.106,0,0,1-.246.87,1.458,1.458,0,0,1-.712.7,3.418,3.418,0,0,1-1.037.3A8.2,8.2,0,0,1,137.661,1.055ZM144.077.6a1.274,1.274,0,0,1-1.441-1.441V-11.391a1.274,1.274,0,0,1,1.441-1.441h3.3a1.282,1.282,0,0,1,1.441,1.459V-.861A1.282,1.282,0,0,1,147.382.6Zm.7-1.547h1.881a.575.575,0,0,0,.65-.65v-9.035a.575.575,0,0,0-.65-.65H144.78a.575.575,0,0,0-.65.65V-1.6A.575.575,0,0,0,144.78-.949Z" transform="translate(146 238)" fill="#212121"/>
    <g id="グループ_608" data-name="グループ 608">
      <path id="パス_509" data-name="パス 509" d="M-22.992.742a.4.4,0,0,1-.327-.127.528.528,0,0,1-.1-.342A.415.415,0,0,1-23.334.02a.466.466,0,0,1,.181-.112,2.324,2.324,0,0,1,.278-.093l.215-.059a10.025,10.025,0,0,0,1.108-.42,5.4,5.4,0,0,0,1.021-.586,5.784,5.784,0,0,1-.425-.459,7.52,7.52,0,0,1-.469-.62,4.661,4.661,0,0,1-.381-.664,1.413,1.413,0,0,1-.151-.581.233.233,0,0,1,.161-.249,1,1,0,0,1,.317-.054.266.266,0,0,1,.244.127,1.4,1.4,0,0,1,.127.264,3.79,3.79,0,0,0,.488.928,4.673,4.673,0,0,0,.723.771q.146-.146.381-.435t.469-.635a5.651,5.651,0,0,0,.391-.664,1.256,1.256,0,0,0,.156-.522.1.1,0,0,0-.049-.1.26.26,0,0,0-.117-.024h-3.613a10.272,10.272,0,0,1-.586,1.6,9.43,9.43,0,0,1-.85,1.475l-.244.337q-.166.229-.381.474a4.252,4.252,0,0,1-.42.42.59.59,0,0,1-.352.176.447.447,0,0,1-.371-.146A.607.607,0,0,1-25.6-.225a.511.511,0,0,1,.151-.312q.151-.176.239-.264a8.244,8.244,0,0,0,1.646-2.5,11.624,11.624,0,0,0,.786-2.9h-2.236a.714.714,0,0,1-.371-.093.359.359,0,0,1-.156-.337.359.359,0,0,1,.156-.337.714.714,0,0,1,.371-.093H-22.7l.049-.869a.576.576,0,0,1,.132-.361.475.475,0,0,1,.356-.117.51.51,0,0,1,.317.093A.362.362,0,0,1-21.723-8a4.06,4.06,0,0,1-.029.474q-.029.249-.049.474h4.834a.682.682,0,0,1,.371.093.367.367,0,0,1,.146.337.367.367,0,0,1-.146.337.682.682,0,0,1-.371.093H-21.9l-.186,1.2h3.7a2.062,2.062,0,0,1,.4.039.694.694,0,0,1,.337.161.466.466,0,0,1,.137.366,2.119,2.119,0,0,1-.171.757,6.234,6.234,0,0,1-.439.889q-.269.454-.552.84a4.18,4.18,0,0,1-.518.6l-.029.02a5.5,5.5,0,0,0,1.03.581,10.654,10.654,0,0,0,1.108.415,2.306,2.306,0,0,1,.278.093,1.014,1.014,0,0,1,.283.166A.324.324,0,0,1-16.4.2a.632.632,0,0,1-.1.366A.4.4,0,0,1-16.85.7a1.6,1.6,0,0,1-.5-.107q-.308-.107-.674-.278t-.723-.366q-.356-.2-.654-.376t-.464-.3a7.061,7.061,0,0,1-.635.435q-.4.249-.864.483a8.212,8.212,0,0,1-.894.391A2.212,2.212,0,0,1-22.992.742ZM-7.541-6.67q-.332,0-.332-.361V-7.91q0-.361.332-.361t.342.361v.879Q-7.2-6.67-7.541-6.67Zm1.113,0q-.342,0-.342-.361V-7.91q0-.361.342-.361t.342.361v.879Q-6.086-6.67-6.428-6.67ZM-14.094.371q-.488,0-.488-.469A.809.809,0,0,1-14.5-.371q.078-.186.161-.376t.122-.269a23.566,23.566,0,0,0,.952-2.5q.405-1.274.708-2.573l.01-.029h-1.738a.718.718,0,0,1-.366-.088.351.351,0,0,1-.151-.332.337.337,0,0,1,.156-.322.724.724,0,0,1,.361-.088h1.914q.029-.146.059-.356a3.6,3.6,0,0,1,.083-.415.845.845,0,0,1,.171-.342.4.4,0,0,1,.322-.137q.43,0,.43.41a1.957,1.957,0,0,1-.049.425q-.049.22-.1.415h2.568a.745.745,0,0,1,.371.088.347.347,0,0,1,.156.332.336.336,0,0,1-.156.327.781.781,0,0,1-.371.083h-2.744l-.01.029q-.049.2-.161.635t-.278,1.03q-.166.591-.361,1.245t-.41,1.284q-.215.63-.435,1.143a4.986,4.986,0,0,1-.425.815Q-13.918.371-14.094.371Zm3.848-4.395q-.352,0-.352-.371a.4.4,0,0,1,.215-.342,1.853,1.853,0,0,1,.562-.22,6.023,6.023,0,0,1,.752-.127q.405-.044.791-.063t.679-.02h.41a.926.926,0,0,1,.42.093.369.369,0,0,1,.186.366.4.4,0,0,1-.166.366.767.767,0,0,1-.41.1h-.786q-.327,0-.615.01t-.61.044q-.322.034-.762.112-.068.01-.156.029A.73.73,0,0,1-10.246-4.023ZM-8.176.313q-.352,0-.776-.034a6.081,6.081,0,0,1-.84-.127,2.776,2.776,0,0,1-.762-.288,1.61,1.61,0,0,1-.557-.508,1.389,1.389,0,0,1-.21-.791,2.861,2.861,0,0,1,.029-.366,2.417,2.417,0,0,1,.1-.43,1.018,1.018,0,0,1,.2-.356.418.418,0,0,1,.332-.146.471.471,0,0,1,.283.078.3.3,0,0,1,.107.264,1.234,1.234,0,0,1-.088.415,1.342,1.342,0,0,0-.088.464.569.569,0,0,0,.19.444A1.35,1.35,0,0,0-9.772-.8a3.486,3.486,0,0,0,.63.142q.332.044.625.054t.469.01a3.8,3.8,0,0,0,.605-.049,3.8,3.8,0,0,1,.605-.049.566.566,0,0,1,.356.1.4.4,0,0,1,.132.337.394.394,0,0,1-.22.366,1.47,1.47,0,0,1-.537.161,5.037,5.037,0,0,1-.615.039Zm7.063.137a.842.842,0,0,1-.43-.107.4.4,0,0,1-.186-.381.365.365,0,0,1,.137-.332A.64.64,0,0,1-1.24-.459q.176,0,.347.015t.347.015A6.8,6.8,0,0,0,.376-.493q.464-.063.913-.171a3.674,3.674,0,0,0,.771-.288,1.514,1.514,0,0,0,.566-.493,1.365,1.365,0,0,0,.215-.791,1.182,1.182,0,0,0-.273-.815,1.627,1.627,0,0,0-.688-.454,2.549,2.549,0,0,0-.854-.146,4.7,4.7,0,0,0-1.587.259,4.866,4.866,0,0,0-1.4.8,1.369,1.369,0,0,1-.171.127.368.368,0,0,1-.2.059A.554.554,0,0,1-2.656-2.5a.342.342,0,0,1-.127-.3.742.742,0,0,1,.049-.259q.049-.132.088-.249a13.07,13.07,0,0,0,.381-1.372q.156-.708.283-1.392h-1.66a.74.74,0,0,1-.376-.093A.355.355,0,0,1-4.18-6.5a.369.369,0,0,1,.156-.347.734.734,0,0,1,.381-.093h1.826v-.029q.01-.049.034-.2l.054-.332q.029-.181.063-.322A.587.587,0,0,1-1.6-8.008a.439.439,0,0,1,.381-.2q.42,0,.42.391a2.286,2.286,0,0,1-.044.439q-.044.225-.083.43h4.15a.734.734,0,0,1,.381.093A.369.369,0,0,1,3.76-6.5a.359.359,0,0,1-.156.337.734.734,0,0,1-.381.093H-1.084L-1.621-3.74A4.709,4.709,0,0,1-.381-4.3,4.88,4.88,0,0,1,.957-4.482a4.392,4.392,0,0,1,1.06.127,2.856,2.856,0,0,1,.913.4,1.943,1.943,0,0,1,.635.7A2.207,2.207,0,0,1,3.8-2.2,2.081,2.081,0,0,1,3.467-.991a2.4,2.4,0,0,1-.884.771A4.911,4.911,0,0,1,1.377.215a8.627,8.627,0,0,1-1.3.19Q-.576.449-1.113.449ZM9.826-.977a.673.673,0,0,1-.762-.762V-6.631A.678.678,0,0,1,9.826-7.4h.908l.156-.459a3.68,3.68,0,0,1,.151-.391q.073-.156.366-.156a.8.8,0,0,1,.308.059.245.245,0,0,1,.142.254.629.629,0,0,1-.059.22q-.059.142-.127.273a1.736,1.736,0,0,1-.117.2h1.816A1.007,1.007,0,0,1,14-7.236a.726.726,0,0,1,.215.605v1.172a.678.678,0,0,1-.762.771H9.855v.85h3.8a1.03,1.03,0,0,1,.625.161.711.711,0,0,1,.215.6v1.338a.673.673,0,0,1-.762.762ZM7.863-6.67a.537.537,0,0,1-.273-.088q-.146-.088-.254-.156A2.2,2.2,0,0,0,7.1-7.036a3.309,3.309,0,0,1-.332-.176,1.637,1.637,0,0,1-.293-.22.333.333,0,0,1-.122-.234q0-.41.43-.41a1.165,1.165,0,0,1,.381.093,3.376,3.376,0,0,1,.5.244,2.4,2.4,0,0,1,.439.322.469.469,0,0,1,.181.317A.376.376,0,0,1,7.863-6.67ZM9.855-5.41h3.252a.314.314,0,0,0,.225-.083.288.288,0,0,0,.088-.22v-.654a.276.276,0,0,0-.312-.312H10.168a.276.276,0,0,0-.312.313ZM13.391.527q-.605,0-1.221-.01T10.949.488q-.381-.01-.771-.024T9.406.4A3.4,3.4,0,0,1,8.522.137,2.249,2.249,0,0,1,7.775-.4l-.3.229q-.186.142-.4.288a3.543,3.543,0,0,1-.41.249.787.787,0,0,1-.347.1Q5.9.469,5.9.02a.4.4,0,0,1,.234-.391L7.18-.889V-3.555a.274.274,0,0,0-.122-.269.569.569,0,0,0-.3-.054q-.176.01-.361.01a.786.786,0,0,1-.347-.073Q5.9-4.014,5.9-4.287a.363.363,0,0,1,.41-.41h.9q.771,0,.771.8v2.686a1.587,1.587,0,0,0,.649.566,3.34,3.34,0,0,0,.884.278,6.373,6.373,0,0,0,.962.093q.483.01.874.01.811,0,1.626-.024t1.616-.024a.845.845,0,0,1,.366.068Q15.1-.176,15.1.1a.452.452,0,0,1-.054.229.34.34,0,0,1-.19.142A1.61,1.61,0,0,1,14.587.5q-.2.015-.449.02t-.454,0ZM10.168-1.7h3.2a.281.281,0,0,0,.322-.312V-2.8a.281.281,0,0,0-.322-.312H9.855v1.1A.276.276,0,0,0,10.168-1.7ZM18.979.586a.692.692,0,0,1-.4-.107.418.418,0,0,1-.156-.371.446.446,0,0,1,.107-.347.438.438,0,0,1,.283-.1q.176,0,.361,0a.976.976,0,0,0,.352-.063.494.494,0,0,0,.264-.278A1.311,1.311,0,0,0,19.872-1q.034-.205.059-.444t.039-.454q.015-.215.024-.332l.176-3.291q.029-.4-.4-.4h-.9q-.02.762-.093,1.6a15.881,15.881,0,0,1-.234,1.665,8.143,8.143,0,0,1-.454,1.538q-.068.156-.19.425a5.566,5.566,0,0,1-.288.547,2.284,2.284,0,0,1-.361.469.585.585,0,0,1-.41.19Q16.4.518,16.4.049A.4.4,0,0,1,16.479-.2q.078-.107.156-.205a4.511,4.511,0,0,0,.713-1.2,7.77,7.77,0,0,0,.42-1.411,12.056,12.056,0,0,0,.2-1.475q.054-.737.054-1.4v-.029H16.977a.661.661,0,0,1-.366-.1.375.375,0,0,1-.151-.342A.354.354,0,0,1,16.62-6.7.773.773,0,0,1,17-6.787h1.045l.029-1.1a.661.661,0,0,1,.1-.356.385.385,0,0,1,.337-.132.393.393,0,0,1,.439.449q0,.283-.015.571t-.024.571h1.1a1.17,1.17,0,0,1,.728.205.819.819,0,0,1,.269.693q0,.889-.054,1.777t-.1,1.768q-.01.2-.034.513t-.063.674q-.039.356-.1.664a2.281,2.281,0,0,1-.137.483.81.81,0,0,1-.4.391,1.9,1.9,0,0,1-.576.166A4.554,4.554,0,0,1,18.979.586ZM22.543.332a.708.708,0,0,1-.8-.8V-6.328a.708.708,0,0,1,.8-.8h1.836a.712.712,0,0,1,.8.811v5.84a.712.712,0,0,1-.8.811Zm.391-.859h1.045a.319.319,0,0,0,.361-.361v-5.02a.319.319,0,0,0-.361-.361H22.934a.319.319,0,0,0-.361.361v5.02A.319.319,0,0,0,22.934-.527Z" transform="translate(120 212)" fill="#ea730c"/>
      <g id="アートワーク_23" data-name="アートワーク 23" transform="translate(119.441 232)">
        <g id="グループ_599" data-name="グループ 599" transform="translate(-14.441 -15)">
          <g id="楕円形_101" data-name="楕円形 101" transform="translate(5.603)" fill="none" stroke="#ea730c" stroke-linecap="round" stroke-linejoin="round" stroke-width="2.047">
            <circle cx="7.445" cy="7.445" r="7.445" stroke="none"/>
            <circle cx="7.445" cy="7.445" r="6.422" fill="none"/>
          </g>
          <path id="パス_478" data-name="パス 478" d="M20.5,214.641v1.542h-1.37a10.78,10.78,0,0,0-6.076-1.869,11.135,11.135,0,0,0-11,11.239H0a13.184,13.184,0,0,1,13.049-13.286,12.826,12.826,0,0,1,7.252,2.239Z" transform="translate(0 -195.553)" fill="#ea730c"/>
          <path id="パス_479" data-name="パス 479" d="M305.488,310.981h-2.047a11.566,11.566,0,0,0-.171-1.988c0-.02,0-.039,0-.059V305h.82q.078.156.151.314A13.37,13.37,0,0,1,305.488,310.981Z" transform="translate(-279.39 -280.981)" fill="#ea730c"/>
          <line id="線_975" data-name="線 975" x1="0.82" transform="translate(23.881 24.016)" fill="none"/>
          <line id="線_976" data-name="線 976" x2="13.386" transform="translate(15.495 22.244)" fill="none" stroke="#ea730c" stroke-linecap="round" stroke-linejoin="round" stroke-width="2.08"/>
          <line id="線_977" data-name="線 977" y1="13.386" transform="translate(22.188 15.551)" fill="none" stroke="#ea730c" stroke-linecap="round" stroke-linejoin="round" stroke-width="2.051"/>
        </g>
      </g>
    </g>
  </g>
</svg>
