<svg id="グループ_271" data-name="グループ 271" xmlns="http://www.w3.org/2000/svg" width="9.62" height="12.55" viewBox="0 0 9.62 12.55">
  <g id="パス_201" data-name="パス 201" transform="translate(0)" fill="#fff">
    <path d="M 4.809999942779541 11.82526969909668 C 3.340250968933105 10.24783802032471 0.4999999403953552 6.809319496154785 0.4999999403953552 4.918569564819336 C 0.4999999403953552 2.482159614562988 2.433459997177124 0.499999612569809 4.809999942779541 0.499999612569809 C 7.186540126800537 0.499999612569809 9.119999885559082 2.482159614562988 9.119999885559082 4.918569564819336 C 9.119999885559082 6.809319496154785 6.279748916625977 10.24783802032471 4.809999942779541 11.82526969909668 Z" stroke="none"/>
    <path d="M 4.809999942779541 1 C 2.709159851074219 1 1 2.757859230041504 1 4.918569564819336 C 1 5.325779438018799 1.213089942932129 6.551219463348389 3.186820030212402 9.12913990020752 C 3.774620532989502 9.896877288818359 4.368102550506592 10.58646297454834 4.809998989105225 11.07936382293701 C 5.251916408538818 10.58644199371338 5.84537935256958 9.896877288818359 6.43317985534668 9.12913990020752 C 8.406909942626953 6.551219463348389 8.619999885559082 5.325779438018799 8.619999885559082 4.918569564819336 C 8.619999885559082 2.757859230041504 6.910840034484863 1 4.809999942779541 1 M 4.809999942779541 0 C 7.466489791870117 0 9.619999885559082 2.202119827270508 9.619999885559082 4.918569564819336 C 9.619999885559082 7.635019779205322 4.809999942779541 12.54999923706055 4.809999942779541 12.54999923706055 C 4.809999942779541 12.54999923706055 0 7.635019779205322 0 4.918569564819336 C 0 2.202119827270508 2.153510093688965 0 4.809999942779541 0 Z" stroke="none" fill="#9e9e9e"/>
  </g>
  <g id="楕円形_73" data-name="楕円形 73" transform="translate(2.811 2.972)" fill="#fff" stroke="#9e9e9e" stroke-width="1">
    <ellipse cx="2.08" cy="2.08" rx="2.08" ry="2.08" stroke="none"/>
    <ellipse cx="2.08" cy="2.08" rx="1.58" ry="1.58" fill="none"/>
  </g>
</svg>
