<svg xmlns="http://www.w3.org/2000/svg" xmlns:xlink="http://www.w3.org/1999/xlink" width="378" height="378" viewBox="0 0 378 378">
  <defs>
    <filter id="IMG_20200930_143210" x="0" y="0" width="378" height="378" filterUnits="userSpaceOnUse">
      <feOffset dy="3" input="SourceAlpha"/>
      <feGaussianBlur stdDeviation="5" result="blur"/>
      <feFlood flood-opacity="0.161"/>
      <feComposite operator="in" in2="blur"/>
      <feComposite in="SourceGraphic"/>
    </filter>
  </defs>
  <g id="投稿がないときのイメージ" transform="translate(1 -47)">
    <g transform="matrix(1, 0, 0, 1, -1, 47)" filter="url(#IMG_20200930_143210)">
      <rect id="IMG_20200930_143210-2" data-name="IMG_20200930_143210" width="348" height="348" rx="28" transform="translate(15 12)" fill="#fff"/>
    </g>
    <g id="グループ_136" data-name="グループ 136" transform="translate(24.566 19.544)">
      <rect id="長方形_103" data-name="長方形 103" width="138.165" height="138.165" rx="14" transform="matrix(0.996, 0.087, -0.087, 0.996, 108.794, 110.332)" fill="#ffeac9"/>
      <rect id="長方形_106" data-name="長方形 106" width="138.165" height="138.165" rx="14" transform="matrix(0.999, -0.035, 0.035, 0.999, 80.434, 130.499)" fill="#f2f2f2"/>
      <g id="グループ_141" data-name="グループ 141" transform="translate(-24.566 -50.544)">
        <g id="グループ_140" data-name="グループ 140" transform="translate(8.891 -3.392)">
          <circle id="楕円形_42" data-name="楕円形 42" cx="30.5" cy="30.5" r="30.5" transform="translate(137.109 218.392)" fill="#fff"/>
          <g id="楕円形_43" data-name="楕円形 43" transform="translate(144.109 224.392)" fill="none" stroke="#f2f2f2" stroke-width="1">
            <circle cx="24" cy="24" r="24" stroke="none"/>
            <circle cx="24" cy="24" r="23.5" fill="none"/>
          </g>
        </g>
        <path id="合体_10" data-name="合体 10" d="M3.936,60.323V25.607A8.252,8.252,0,0,1,.058,18.57,2.4,2.4,0,0,1,0,18.042V2.066A1.923,1.923,0,0,1,1.736,0,1.923,1.923,0,0,1,3.472,2.066V14.387H4.861V2.066A1.923,1.923,0,0,1,6.6,0,1.923,1.923,0,0,1,8.333,2.066V14.387h1.851V2.066A1.923,1.923,0,0,1,11.921,0a1.922,1.922,0,0,1,1.736,2.066V18.042a2.44,2.44,0,0,1-.057.528,8.182,8.182,0,0,1-4.11,7.16V60.323a3.075,3.075,0,0,1-2.777,3.3A3.075,3.075,0,0,1,3.936,60.323Z" transform="translate(126.134 222.565) rotate(-3)" fill="#fff"/>
        <path id="合体_9" data-name="合体 9" d="M4.861,61.424V26.091C1.957,24.176,0,19.392,0,13.5,0,5.8,3.333,0,7.753,0s7.753,5.8,7.753,13.5c0,6.051-2.062,10.932-5.092,12.74V61.424a3.075,3.075,0,0,1-2.777,3.3A3.075,3.075,0,0,1,4.861,61.424Z" transform="translate(210.899 217.432) rotate(-2)" fill="#fff"/>
      </g>
    </g>
    <g id="グループ_131" data-name="グループ 131" transform="translate(0 98)">
      <text id="から写真を追加" transform="translate(146 238)" fill="#212121" font-size="18" font-family="GenSenRoundedJP-R, GenSenRounded JP" letter-spacing="0.05em"><tspan x="0" y="0">から写真を追加</tspan></text>
      <text id="追加" transform="translate(110 212)" fill="#ea730c" font-size="10" font-family="GenSenRoundedJP-R, GenSenRounded JP" letter-spacing="0.05em"><tspan x="0" y="0">追加</tspan></text>
      <g id="アートワーク_17" data-name="アートワーク 17" transform="translate(120 232)">
        <g id="グループ_381" data-name="グループ 381" transform="translate(-15 -15)">
          <g id="長方形_227" data-name="長方形 227" fill="none" stroke="#ea730c" stroke-linecap="round" stroke-linejoin="round" stroke-width="2.053">
            <rect width="30" height="30" rx="4.676" stroke="none"/>
            <rect x="1.026" y="1.026" width="27.947" height="27.947" rx="3.65" fill="none"/>
          </g>
          <line id="線_734" data-name="線 734" x2="17.447" transform="translate(6.276 15)" fill="none" stroke="#ea730c" stroke-linecap="round" stroke-linejoin="round" stroke-width="2.053"/>
          <line id="線_735" data-name="線 735" y1="17.447" transform="translate(15 6.276)" fill="none" stroke="#ea730c" stroke-linecap="round" stroke-linejoin="round" stroke-width="2.053"/>
        </g>
      </g>
    </g>
  </g>
</svg>
