<svg xmlns="http://www.w3.org/2000/svg" width="376" height="155.858" viewBox="0 0 376 155.858">
  <g id="背景_カトラリー_" data-name="背景（カトラリー）" transform="translate(0 -656.142)">
    <path id="交差_2" data-name="交差 2" d="M0,105.358V43.143A174.291,174.291,0,0,1,251.618,66.326,173.5,173.5,0,0,1,348.426,37,175.726,175.726,0,0,1,376,39.167v66.191Z" transform="translate(0 706.642)" fill="#f4eb49"/>
    <g id="交差_4" data-name="交差 4" transform="translate(0 744.642)" fill="#ebe247" opacity="0.25">
      <path d="M 227.2094879150391 64.85868835449219 L 2.500009775161743 64.85868835449219 L 2.500009775161743 63.74103164672852 C 8.293918609619141 54.71646881103516 15.17908477783203 46.39582443237305 22.97325897216797 39.00044250488281 C 30.9558219909668 31.42634773254395 39.853759765625 24.85919189453125 49.41994857788086 19.48144149780273 C 59.1492919921875 14.01197338104248 69.54072570800781 9.790972709655762 80.3056640625 6.935660362243652 C 91.40232086181641 3.992379188537598 102.9068832397461 2.500004291534424 114.4997634887695 2.500004291534424 C 126.5259170532227 2.500004291534424 138.4453582763672 4.10484790802002 149.9270172119141 7.269910335540771 C 161.0584106445312 10.33844184875488 171.7640991210938 14.86656665802002 181.7467346191406 20.72853469848633 C 200.1995391845703 31.56430244445801 215.8408813476562 46.76265335083008 227.2094879150391 64.85868835449219 Z" stroke="none"/>
      <path d="M 222.5917053222656 62.35868072509766 C 211.6889343261719 46.28449249267578 197.270263671875 32.74336624145508 180.4807739257812 22.88431549072266 C 170.6866455078125 17.13304710388184 160.183349609375 12.69048118591309 149.2626037597656 9.680047988891602 C 137.9973449707031 6.574614524841309 126.3014450073242 5.000014781951904 114.4997406005859 5.000014781951904 C 103.1231460571289 5.000014781951904 91.83421325683594 6.464281558990479 80.94657897949219 9.352114677429199 C 70.38547515869141 12.15334796905518 60.19057464599609 16.29454803466797 50.64504241943359 21.66071510314941 C 41.25837707519531 26.93754768371582 32.5272102355957 33.38164901733398 24.69400978088379 40.81401443481445 C 17.83883666992188 47.31843566894531 11.70033836364746 54.55210494995117 6.407220363616943 62.35868072509766 L 222.5917053222656 62.35868072509766 M 231.6450042724609 67.35868072509766 L 9.765624781721272e-06 67.35868072509766 L 9.765624781721272e-06 63.01131439208984 C 24.0268440246582 25.13541412353516 66.32617950439453 1.465860987082124e-05 114.4997406005859 1.465860987082124e-05 C 164.4912109375 1.465860987082124e-05 208.1608734130859 27.07438087463379 231.6450042724609 67.35868072509766 Z" stroke="none" fill="#fff"/>
    </g>
    <path id="交差_1" data-name="交差 1" d="M110,155.858V103.067C101.165,97.552,95.043,86.013,95.043,80.6V68.613A5.326,5.326,0,0,1,95,67.932V5.324a5.323,5.323,0,1,1,10.647,0v56.84h8.984V5.324a5.324,5.324,0,0,1,10.648,0v56.84h8.984V5.324a5.323,5.323,0,1,1,10.647,0v56.84H145V80.6c0,5.561-6.674,17.59-16,22.908v52.351Zm-86,0V93.172c-13.865-5.737-24-24-24-45.65C0,21.276,14.9,0,33.281,0S66.563,21.276,66.563,47.522c0,21.419-9.923,39.528-23.564,45.464v62.872Z" transform="translate(217 656.142)" fill="#fcfad2"/>
    <line id="線_5" data-name="線 5" x2="216" transform="translate(6.5 809.5)" fill="none" stroke="#f1e848" stroke-width="5"/>
    <path id="パス_12" data-name="パス 12" d="M0,0,6.21,4.1H0Z" transform="translate(3.169 812) rotate(-90)" fill="#f1e848"/>
    <path id="パス_13" data-name="パス 13" d="M0,4.877,5.75.893,0,0Z" transform="translate(221.767 812) rotate(-90)" fill="#f1e848"/>
  </g>
</svg>
