<svg xmlns="http://www.w3.org/2000/svg" width="46" height="46" viewBox="0 0 46 46">
  <g id="設定ボタン" transform="translate(-330)">
    <circle id="楕円形_12" data-name="楕円形 12" cx="23" cy="23" r="23" transform="translate(330)" fill="none"/>
    <g id="アートワーク_27" data-name="アートワーク 27" transform="translate(353 23)">
      <path id="パス_285" data-name="パス 285" d="M17.286,7.507l-1.222-.094a.787.787,0,0,1-.686-.536,6.761,6.761,0,0,0-.367-.885.786.786,0,0,1,.106-.864l.8-.931a.781.781,0,0,0-.048-1.058l-1.006-1a.777.777,0,0,0-.555-.231.789.789,0,0,0-.5.182l-.931.8a.788.788,0,0,1-.864.106,6.762,6.762,0,0,0-.885-.367.787.787,0,0,1-.536-.686L10.493.714A.781.781,0,0,0,9.711,0H8.289a.781.781,0,0,0-.782.714L7.413,1.936a.785.785,0,0,1-.536.686,6.762,6.762,0,0,0-.885.367.788.788,0,0,1-.864-.106l-.931-.8a.785.785,0,0,0-1.058.048l-1,1.005A.782.782,0,0,0,2.085,4.2l.8.931a.786.786,0,0,1,.106.864,6.762,6.762,0,0,0-.367.885.787.787,0,0,1-.686.536L.714,7.506A.783.783,0,0,0,0,8.289V9.71a.782.782,0,0,0,.714.783l1.222.094a.785.785,0,0,1,.686.536,6.762,6.762,0,0,0,.367.885.786.786,0,0,1-.106.864l-.8.931a.78.78,0,0,0,.049,1.058l1,1a.781.781,0,0,0,.556.231.789.789,0,0,0,.5-.182l.931-.8a.783.783,0,0,1,.864-.106,6.761,6.761,0,0,0,.885.367.785.785,0,0,1,.536.686l.094,1.222A.781.781,0,0,0,8.289,18H9.711a.781.781,0,0,0,.782-.714l.094-1.222a.785.785,0,0,1,.536-.686,6.762,6.762,0,0,0,.885-.367.788.788,0,0,1,.864.106l.931.8a.788.788,0,0,0,.5.182.777.777,0,0,0,.556-.231l1-1a.78.78,0,0,0,.049-1.058l-.8-.931a.786.786,0,0,1-.106-.864,6.762,6.762,0,0,0,.367-.885.785.785,0,0,1,.686-.536l1.222-.094A.781.781,0,0,0,18,9.711V8.289A.781.781,0,0,0,17.286,7.507ZM9,13.009A4.009,4.009,0,1,1,13.009,9,4.009,4.009,0,0,1,9,13.009Z" transform="translate(-9 -9)" fill="none" stroke="#fff" stroke-width="1"/>
    </g>
  </g>
</svg>
