<svg xmlns="http://www.w3.org/2000/svg" width="87" height="58" viewBox="0 0 87 58">
  <g id="friends" transform="translate(0.333)">
    <rect id="長方形_42" data-name="長方形 42" width="87" height="58" transform="translate(-0.333)" fill="none"/>
    <g id="アートワーク_22" data-name="アートワーク 22" transform="translate(43.167 29)">
      <g id="グループ_384" data-name="グループ 384" transform="translate(-12.5 -12.054)">
        <path id="パス_279" data-name="パス 279" d="M54.277,3.465A11.508,11.508,0,0,0,46.258,0l-.231,0A11.549,11.549,0,0,0,34.875,8.575a6.247,6.247,0,0,1,2.112-.882,9.839,9.839,0,0,1,9.04-5.978l.2,0a9.827,9.827,0,0,1-.188,19.653l-.2,0a9.814,9.814,0,0,1-5.25-1.643,6.271,6.271,0,0,1-2.249.424,11.5,11.5,0,0,0,7.466,2.934l.231,0a11.542,11.542,0,0,0,8.241-19.62Z" transform="translate(-32.575)" fill="#707070"/>
        <line id="線_744" data-name="線 744" y1="2.472" x2="4.522" transform="translate(13.49 9.07)" fill="none" stroke="#707070" stroke-linecap="round" stroke-linejoin="round" stroke-width="1.715"/>
        <line id="線_745" data-name="線 745" y1="7.256" transform="translate(13.457 4.254)" fill="none" stroke="#707070" stroke-linecap="round" stroke-linejoin="round" stroke-width="1.715"/>
        <g id="パス_280" data-name="パス 280" transform="translate(0 -129.92)" fill="none" stroke-linecap="round" stroke-linejoin="round">
          <path d="M1.917,141.236a11.592,11.592,0,0,1,.242-2.142.109.109,0,0,1-.033.033q-.02.121-.041.241a.092.092,0,0,1-.058.067.136.136,0,0,1-.041.046c-.061.045-.122.091-.183.138l-.092.093a.1.1,0,0,1-.034.022.11.11,0,0,1-.033.03l-.008.005-.1.1-.042.05-.007.005c-.029.034-.058.069-.089.1l-.02.023c-.077.111-.179.2-.252.316a.243.243,0,0,1-.028.052c-.017.027-.035.052-.053.078a1.836,1.836,0,0,0-.129.19h0l0,0c0,.008-.008.015-.012.023s0,0,0,0l0,.007,0,0c-.038.053-.071.111-.108.165l-.009.02c-.035.078-.09.145-.122.224l0,0h0a.026.026,0,0,1,0,.013.025.025,0,0,1-.007.011h0l0,0h0a.036.036,0,0,1-.009.021l-.007.009a.026.026,0,0,1,0,.029,1.041,1.041,0,0,0-.06.095,1.07,1.07,0,0,1-.045.113c-.026.054-.056.107-.08.162v0c-.008.02-.016.04-.023.06l-.015.042-.015.044-.02.055-.008.026c0,.006,0,.011,0,.006a.03.03,0,0,1-.024.039c-.006.013-.013.025-.018.038a.026.026,0,0,1,0,.018L.3,141.95a.03.03,0,0,1,.005.028c-.017.047-.036.094-.054.141s-.029.111-.047.165A.036.036,0,0,1,.2,142.3a.034.034,0,0,1,0,.014,1.466,1.466,0,0,0-.035.162,1.258,1.258,0,0,1-.039.138.138.138,0,0,1,0,.04c-.016.094-.032.189-.047.283l-.01.07,0,.016v0l0,.033q-.009.071-.015.143a.125.125,0,0,1-.024.064c.02.379.01.761-.007,1.139a.474.474,0,0,1-.011.083,2.09,2.09,0,0,1,.007.527.488.488,0,0,1,0,.049c.016.348,0,.7-.014,1.043a2.189,2.189,0,0,1,.011.269,6.292,6.292,0,0,0,5.729,3.694h.025A11.516,11.516,0,0,1,1.917,141.236Z" stroke="none"/>
          <path d="M 2.159327030181885 139.093994140625 C 2.014887094497681 139.78662109375 1.931377172470093 140.5024719238281 1.917067050933838 141.2360534667969 C 1.848467111587524 144.7364349365234 3.345057010650635 147.9037322998047 5.76505708694458 150.0684814453125 L 5.739986896514893 150.0684814453125 C 3.19150710105896 150.0684814453125 1.001707077026367 148.5518341064453 0.0110173225402832 146.3740386962891 C 0.0124669075012207 146.2842712402344 0.0095672607421875 146.1947021484375 -2.86102294921875e-06 146.1053314208984 C 0.01694726943969727 145.7577972412109 0.0298771858215332 145.4101257324219 0.01404714584350586 145.0619354248047 C 0.01332712173461914 145.0449829101562 0.01173734664916992 145.028564453125 0.009427070617675781 145.0126647949219 C 0.02657699584960938 144.8364868164062 0.03007698059082031 144.66064453125 0.002707004547119141 144.4853363037109 C 0.008577346801757812 144.4591522216797 0.01272726058959961 144.4317169189453 0.01404714584350586 144.4023590087891 C 0.03119707107543945 144.0236968994141 0.04075717926025391 143.6422576904297 0.02077722549438477 143.2630615234375 C 0.03389692306518555 143.2453918457031 0.04221725463867188 143.2234191894531 0.0443272590637207 143.1986236572266 C 0.04841709136962891 143.1508026123047 0.05335712432861328 143.1031188964844 0.05922698974609375 143.0554962158203 C 0.060546875 143.044677734375 0.06193733215332031 143.0337982177734 0.06331729888916016 143.0229797363281 L 0.0643773078918457 143.0149993896484 L 0.06384706497192383 143.019287109375 C 0.06457710266113281 143.0138854980469 0.06529712677001953 143.0084686279297 0.06608724594116211 143.0031280517578 C 0.06938695907592773 142.9798431396484 0.07281732559204102 142.9565582275391 0.07637691497802734 142.9332733154297 C 0.09082698822021484 142.8387603759766 0.1071772575378418 142.7444458007812 0.1229472160339355 142.6501159667969 C 0.1251869201660156 142.6367950439453 0.1249270439147949 142.6230773925781 0.1232070922851562 142.6096801757812 C 0.1363372802734375 142.563720703125 0.1544070243835449 142.5189971923828 0.162257194519043 142.4716339111328 C 0.1713571548461914 142.4166259765625 0.1825070381164551 142.3630676269531 0.1977372169494629 142.3093872070312 C 0.1992568969726562 142.3041076660156 0.1992568969726562 142.2994232177734 0.198667049407959 142.2950744628906 C 0.2014369964599609 142.2917022705078 0.2037472724914551 142.2877502441406 0.2051973342895508 142.2832641601562 C 0.2231369018554688 142.2289733886719 0.2344169616699219 142.1727905273438 0.2518272399902344 142.1183624267578 C 0.270167350769043 142.0714721679688 0.2893571853637695 142.0247802734375 0.3059172630310059 141.9775543212891 C 0.3092069625854492 141.9679870605469 0.3062472343444824 141.9579620361328 0.3004369735717773 141.9500427246094 C 0.3022170066833496 141.9454193115234 0.3041272163391113 141.9411315917969 0.3059172630310059 141.9365234375 C 0.3081569671630859 141.9303894042969 0.3072271347045898 141.9240570068359 0.3050570487976074 141.9181213378906 C 0.3101372718811035 141.9051971435547 0.3166670799255371 141.8925933837891 0.3229970932006836 141.8799896240234 C 0.3396873474121094 141.8762359619141 0.3535971641540527 141.8617248535156 0.3468770980834961 141.8406829833984 C 0.348717212677002 141.8465118408203 0.3474669456481934 141.8410339355469 0.3491172790527344 141.8350830078125 C 0.3516173362731934 141.8263702392578 0.3543272018432617 141.8177337646484 0.3572273254394531 141.8091583251953 C 0.3636269569396973 141.7906188964844 0.3707470893859863 141.7723541259766 0.3772768974304199 141.7539520263672 C 0.3825569152832031 141.7391052246094 0.3875670433044434 141.7242736816406 0.3926472663879395 141.7094879150391 C 0.3975272178649902 141.6955718994141 0.4024772644042969 141.6817321777344 0.4074172973632812 141.6678161621094 C 0.414607048034668 141.6476287841797 0.4219369888305664 141.6275024414062 0.4303770065307617 141.6076507568359 L 0.4312372207641602 141.6054840087891 C 0.4551072120666504 141.5500793457031 0.4851870536804199 141.4980316162109 0.5109071731567383 141.4435577392578 C 0.5281872749328613 141.4069519042969 0.5425071716308594 141.3691558837891 0.5554971694946289 141.3309631347656 C 0.5740270614624023 141.2984466552734 0.5936870574951172 141.2665252685547 0.6157169342041016 141.2360534667969 C 0.6234369277954102 141.2253570556641 0.6227068901062012 141.2150726318359 0.6180872917175293 141.2066955566406 C 0.620537281036377 141.2037353515625 0.6229772567749023 141.2007598876953 0.6254773139953613 141.1979217529297 C 0.6306872367858887 141.1921844482422 0.6336569786071777 141.1846008300781 0.6343870162963867 141.1768798828125 C 0.6351070404052734 141.1763610839844 0.6360373497009277 141.1762237548828 0.6366872787475586 141.1755676269531 L 0.6387372016906738 141.1729278564453 C 0.6391973495483398 141.1724700927734 0.6399269104003906 141.1723327636719 0.6403870582580566 141.171875 C 0.6436171531677246 141.1688995361328 0.6458573341369629 141.1653442382812 0.647247314453125 141.1612548828125 C 0.649287223815918 141.1572875976562 0.6502170562744141 141.153076171875 0.6500773429870605 141.1485290527344 L 0.6498870849609375 141.1471405029297 C 0.6507372856140137 141.1455535888672 0.6519269943237305 141.1441040039062 0.6525869369506836 141.1423950195312 C 0.6851072311401367 141.0633697509766 0.739387035369873 140.9955596923828 0.7748770713806152 140.9179992675781 C 0.7779068946838379 140.9114074707031 0.7807469367980957 140.9048156738281 0.783717155456543 140.8982086181641 C 0.8203868865966797 140.8437347412109 0.8529071807861328 140.7864837646484 0.8912873268127441 140.7331237792969 C 0.8924069404602051 140.7318725585938 0.8932070732116699 140.7303466796875 0.8941268920898438 140.7288970947266 C 0.8958373069763184 140.7265167236328 0.8972868919372559 140.723876953125 0.8990769386291504 140.7215118408203 C 0.899867057800293 140.720458984375 0.8997273445129395 140.7190704345703 0.900327205657959 140.7178802490234 C 0.9038171768188477 140.7097778320312 0.9083070755004883 140.7022552490234 0.9122672080993652 140.6943969726562 C 0.9130649566650391 140.6931610107422 0.9136791229248047 140.6917572021484 0.9141769409179688 140.6907043457031 C 0.9492669105529785 140.6228332519531 0.9998569488525391 140.5628814697266 1.04285717010498 140.5004272460938 C 1.060667037963867 140.4745635986328 1.079067230224609 140.4491729736328 1.095757007598877 140.4225921630859 C 1.104997158050537 140.4080200195312 1.117727279663086 140.3892822265625 1.123786926269531 140.3704223632812 C 1.196407318115234 140.2570953369141 1.298847198486328 140.1654815673828 1.375357151031494 140.0546722412109 C 1.382017135620117 140.0472259521484 1.388477325439453 140.0395660400391 1.395147323608398 140.0321197509766 C 1.425416946411133 139.9982147216797 1.454507350921631 139.9635162353516 1.483857154846191 139.9290313720703 C 1.486166954040527 139.9270477294922 1.489137172698975 139.9258575439453 1.491106986999512 139.9235534667969 C 1.50482702255249 139.9069976806641 1.518747329711914 139.890380859375 1.532866954803467 139.8738861083984 C 1.567097187042236 139.8391265869141 1.60172700881958 139.8047637939453 1.636487007141113 139.7705230712891 C 1.639117240905762 139.7686767578125 1.641696929931641 139.7667694091797 1.644526958465576 139.7651214599609 C 1.656597137451172 139.7582550048828 1.668147087097168 139.747314453125 1.67730712890625 139.7347869873047 C 1.689517021179199 139.7298278808594 1.701187133789062 139.7230377197266 1.711277008056641 139.7129516601562 C 1.742017269134521 139.6822052001953 1.772617101669312 139.6512756347656 1.802827119827271 139.6200103759766 C 1.863777160644531 139.5731811523438 1.924987077713013 139.5270843505859 1.986257076263428 139.482421875 C 2.003537178039551 139.4698333740234 2.01751708984375 139.4537963867188 2.026817083358765 139.4359893798828 C 2.055647134780884 139.4239196777344 2.07945704460144 139.4012908935547 2.085257053375244 139.3685760498047 C 2.09943699836731 139.2882385253906 2.113357067108154 139.2077789306641 2.126747131347656 139.1272430419922 C 2.139737129211426 139.1181335449219 2.151487112045288 139.1074523925781 2.159327030181885 139.093994140625 Z" stroke="none" fill="#fff"/>
        </g>
        <g id="パス_281" data-name="パス 281" transform="translate(-30.718 -121.435)" fill="none" stroke-linecap="round" stroke-linejoin="round">
          <path d="M33.006,130.019a.078.078,0,0,1,0,.024,3.127,3.127,0,0,0-.109.37v.011a.766.766,0,0,0,0,.13c.039-.183.081-.364.129-.544Z" stroke="none"/>
          <path d="M 33.01853179931641 130.0099945068359 C 32.97097015380859 130.1894683837891 32.92869186401367 130.3711242675781 32.88964080810547 130.553955078125 C 32.88602066040039 130.5106201171875 32.88714218139648 130.4670867919922 32.89089965820312 130.4237518310547 C 32.89115905761719 130.4201965332031 32.89162063598633 130.4166870117188 32.89196014404297 130.4131317138672 C 32.92263031005859 130.2880096435547 32.95541000366211 130.1635437011719 33.00138092041016 130.0427856445312 C 33.00434875488281 130.0349884033203 33.00559997558594 130.0268096923828 33.00600051879883 130.0186309814453 C 33.01021957397461 130.0157318115234 33.01430130004883 130.0127716064453 33.01853179931641 130.0099945068359 Z" stroke="none" fill="#fff"/>
        </g>
        <g id="パス_282" data-name="パス 282" transform="translate(-0.32 -115.364)" fill="none" stroke-linecap="round" stroke-linejoin="round">
          <path d="M6.031,123.51a5.675,5.675,0,0,0-3.626,1.3h0a.092.092,0,0,1-.059.068.135.135,0,0,1-.04.046c-.062.045-.123.091-.185.138l-.09.092a.1.1,0,0,1-.021.016,5.708,5.708,0,0,0-.781.971l-.009.017s0,0,0,0l0,.007,0,0c-.014.02-.028.04-.04.06-.028.045-.055.09-.081.135s-.033.061-.051.091-.04.073-.06.11l-.006.013,0,0h0a.026.026,0,0,1,0,.013.025.025,0,0,1-.007.011h0l0,0h0a.036.036,0,0,1-.009.021l-.005.006,0,0a.026.026,0,0,1,0,.029c-.015.021-.029.043-.042.065l-.029.062c-.01.027-.021.054-.034.08s-.019.038-.028.056c-.042.1-.082.192-.118.29h0l-.008.023-.007.022c0,.006,0,.011,0,.006a.028.028,0,0,1-.013.035c-.01.027-.02.055-.029.082a.028.028,0,0,1,0,.02c-.013.037-.028.073-.043.11-.031.1-.06.2-.086.305-.006.026-.01.052-.015.079A.585.585,0,0,1,.46,128c0,.022-.01.045-.015.067a.141.141,0,0,1,0,.026c-.016.094-.032.189-.047.283l-.01.07,0,.016v0l0,.033q-.009.071-.015.143a.133.133,0,0,1-.011.044c0,.03-.007.059-.009.089.012.286.009.573,0,.86a5.7,5.7,0,1,0,5.688-6.124Z" stroke="none"/>
          <path d="M 6.031344413757324 125.2249298095703 C 5.15831995010376 125.2249298095703 4.338004112243652 125.4979553222656 3.647102355957031 126.0164642333984 C 3.603407859802246 126.0639038085938 3.55708122253418 126.1090850830078 3.50831127166748 126.1517486572266 C 3.448162078857422 126.2095642089844 3.384295463562012 126.2631225585938 3.317334175109863 126.3117370605469 C 3.297721862792969 126.3260345458984 3.278130531311035 126.3405303955078 3.258559226989746 126.3551483154297 C 3.253802299499512 126.3599243164062 3.249042510986328 126.3647003173828 3.244274139404297 126.3694610595703 C 3.219692230224609 126.39404296875 3.194375038146973 126.4179229736328 3.168368339538574 126.4410705566406 C 3.000163078308105 126.6151733398438 2.846184730529785 126.8074798583984 2.709467887878418 127.0142059326172 C 2.689485549926758 127.0493011474609 2.66827392578125 127.0836944580078 2.645866394042969 127.1173095703125 C 2.645492553710938 127.1178741455078 2.645116806030273 127.1184387207031 2.644742012023926 127.1190032958984 C 2.635650634765625 127.1327514648438 2.626289367675781 127.1464996337891 2.616716384887695 127.1601409912109 C 2.608880043029785 127.1728973388672 2.601067543029785 127.1856689453125 2.593371391296387 127.1985015869141 C 2.573046684265137 127.2368621826172 2.553483963012695 127.2714233398438 2.535614013671875 127.3019409179688 C 2.501640319824219 127.3877868652344 2.460659027099609 127.4714508056641 2.412639617919922 127.5523223876953 C 2.402416229248047 127.5756225585938 2.391890525817871 127.5987548828125 2.381064414978027 127.6216888427734 C 2.372663497924805 127.6394195556641 2.364038467407227 127.6570129394531 2.355271339416504 127.6745300292969 C 2.345524787902832 127.697265625 2.336302757263184 127.7192840576172 2.327553749084473 127.7407073974609 C 2.308611869812012 127.8125610351562 2.285061836242676 127.8831176757812 2.25710391998291 127.9518585205078 C 2.254117012023926 127.9610443115234 2.251049995422363 127.97021484375 2.247904777526855 127.9793548583984 C 2.2467041015625 127.9828491210938 2.245494842529297 127.986328125 2.244274139404297 127.9898071289062 C 2.229839324951172 128.0308990478516 2.215668678283691 128.0681915283203 2.202781677246094 128.1009216308594 C 2.191140174865723 128.1403961181641 2.180877685546875 128.1770324707031 2.171832084655762 128.21142578125 C 2.160247802734375 128.2781524658203 2.146411895751953 128.3382873535156 2.132256507873535 128.3916473388672 L 2.123334884643555 128.4447326660156 C 2.112574577331543 128.5085601806641 2.101744651794434 128.5723876953125 2.091974258422852 128.6362762451172 C 2.089354515075684 128.6533966064453 2.086834907531738 128.6705017089844 2.084414482116699 128.6876068115234 C 2.08425235748291 128.6887512207031 2.084087371826172 128.6899108886719 2.083921432495117 128.6910552978516 C 2.083844184875488 128.6916198730469 2.083778381347656 128.6921234130859 2.083701133728027 128.6926879882812 L 2.081624984741211 128.7091979980469 C 2.078384399414062 128.7355194091797 2.075654983520508 128.7618713378906 2.073684692382812 128.7849273681641 C 2.071152687072754 128.8153228759766 2.06788444519043 128.8455810546875 2.063884735107422 128.8757019042969 C 2.06946849822998 129.0952606201172 2.068262100219727 129.3284912109375 2.060242652893066 129.5924377441406 C 2.25035572052002 131.6253967285156 3.978873252868652 133.2058258056641 6.031344413757324 133.2058258056641 C 8.231684684753418 133.2058258056641 10.02179431915283 131.4157104492188 10.02179431915283 129.2153625488281 C 10.02179431915283 127.0150299072266 8.231684684753418 125.2249298095703 6.031344413757324 125.2249298095703 M 6.031344413757324 123.510009765625 C 9.182353973388672 123.510009765625 11.73670482635498 126.0643615722656 11.73670482635498 129.2153625488281 C 11.73670482635498 132.3663635253906 9.182353973388672 134.9207305908203 6.031344413757324 134.9207305908203 C 3.021484375 134.9207305908203 0.5577545166015625 132.5895690917969 0.3430042266845703 129.6344604492188 C 0.3532848358154297 129.3482666015625 0.3569841384887695 129.0610198974609 0.3445844650268555 128.77490234375 C 0.3468942642211914 128.7451477050781 0.3507843017578125 128.7158660888672 0.3535547256469727 128.6861877441406 C 0.3594846725463867 128.6729888916016 0.3633842468261719 128.6583557128906 0.3647041320800781 128.6425170898438 C 0.3687849044799805 128.5946960449219 0.3737344741821289 128.5470123291016 0.3796043395996094 128.4993896484375 C 0.3809242248535156 128.4885711669922 0.3823146820068359 128.4776916503906 0.3836946487426758 128.4668731689453 L 0.3847541809082031 128.4588928222656 L 0.3842248916625977 128.4631805419922 C 0.3849449157714844 128.4577789306641 0.3856744766235352 128.4523620605469 0.3864641189575195 128.447021484375 C 0.3897647857666016 128.4237365722656 0.3931941986083984 128.4004516601562 0.396754264831543 128.3771667480469 C 0.4112043380737305 128.2826538085938 0.4275541305541992 128.1883392333984 0.443324089050293 128.0940093994141 C 0.4447746276855469 128.0853118896484 0.4451045989990234 128.0764770507812 0.4449043273925781 128.067626953125 C 0.4495248794555664 128.0452117919922 0.4550647735595703 128.0231018066406 0.4599447250366211 128.0006866455078 C 0.4690446853637695 127.9727172851562 0.4778146743774414 127.9446105957031 0.4826345443725586 127.91552734375 C 0.4870548248291016 127.8890075683594 0.4919347763061523 127.8629608154297 0.4975347518920898 127.8369750976562 C 0.5231342315673828 127.73388671875 0.5522842407226562 127.6323089599609 0.5833549499511719 127.5315246582031 C 0.5982542037963867 127.4949188232422 0.6132946014404297 127.4584350585938 0.6262845993041992 127.4214477539062 C 0.6285343170166016 127.4149169921875 0.6274147033691406 127.4081726074219 0.6250343322753906 127.4019165039062 C 0.6342744827270508 127.3742065429688 0.6444940567016602 127.3469848632812 0.6541843414306641 127.3195343017578 C 0.6652746200561523 127.3129425048828 0.6723947525024414 127.3007354736328 0.6672449111938477 127.2845764160156 C 0.6690959930419922 127.2903594970703 0.6678447723388672 127.284912109375 0.66949462890625 127.2789611816406 C 0.6716642379760742 127.2715148925781 0.6739749908447266 127.2641906738281 0.6764144897460938 127.2569427490234 C 0.6791849136352539 127.2492980957031 0.6816949844360352 127.2415161132812 0.6845340728759766 127.2339172363281 L 0.6845941543579102 127.2338562011719 C 0.7212047576904297 127.1357727050781 0.7610445022583008 127.0392761230469 0.8029241561889648 126.9439086914062 C 0.8124847412109375 126.9251708984375 0.8222541809082031 126.9065093994141 0.8312845230102539 126.887451171875 C 0.843684196472168 126.8611907958984 0.8547649383544922 126.83447265625 0.864924430847168 126.8074340820312 C 0.8746242523193359 126.7868041992188 0.8839244842529297 126.7658843994141 0.8938140869140625 126.7453002929688 C 0.907404899597168 126.7232055664062 0.9208545684814453 126.7010498046875 0.9360942840576172 126.679931640625 C 0.9435443878173828 126.6695861816406 0.9431543350219727 126.6596984863281 0.9389247894287109 126.6513824462891 L 0.9405145645141602 126.6481475830078 C 0.9422941207885742 126.6461029052734 0.9440040588378906 126.6439208984375 0.9458541870117188 126.6418151855469 C 0.9510641098022461 126.6360778808594 0.9540348052978516 126.6284942626953 0.9547548294067383 126.6207885742188 C 0.9555549621582031 126.6204528808594 0.9564046859741211 126.6201171875 0.9570646286010742 126.6194610595703 L 0.9591140747070312 126.6168212890625 C 0.9595746994018555 126.6163635253906 0.9603042602539062 126.6162261962891 0.9607648849487305 126.6157684326172 C 0.9639949798583984 126.61279296875 0.9662342071533203 126.6092376708984 0.9676246643066406 126.6051483154297 C 0.9696645736694336 126.6011962890625 0.9705848693847656 126.5969696044922 0.970454216003418 126.5924072265625 L 0.9702548980712891 126.5910339355469 C 0.9711141586303711 126.5894470214844 0.9723043441772461 126.5879974365234 0.9729642868041992 126.5862731933594 C 0.9748744964599609 126.5816650390625 0.9774446487426758 126.5774536132812 0.9794244766235352 126.5729675292969 C 0.9988842010498047 126.535888671875 1.019204139709473 126.4994201660156 1.039384841918945 126.4627990722656 C 1.057324409484863 126.4331970214844 1.074804306030273 126.4033203125 1.08990478515625 126.3722534179688 C 1.116154670715332 126.3265991210938 1.143664360046387 126.2818298339844 1.171164512634277 126.2370300292969 C 1.184024810791016 126.2166442871094 1.197554588317871 126.1967315673828 1.21153450012207 126.1771545410156 C 1.212724685668945 126.1756896972656 1.213644981384277 126.1741027832031 1.214704513549805 126.1724548339844 C 1.216344833374023 126.1702270507812 1.217734336853027 126.1677093505859 1.219444274902344 126.1654052734375 C 1.220304489135742 126.1642761230469 1.220244407653809 126.1627655029297 1.220834732055664 126.1615142822266 C 1.223404884338379 126.155517578125 1.226834297180176 126.1499633789062 1.229734420776367 126.1441040039062 C 1.454654693603516 125.7922821044922 1.716044425964355 125.4660491943359 2.010684967041016 125.1727294921875 C 2.018064498901367 125.1683807373047 2.02519416809082 125.1632995605469 2.031654357910156 125.1568450927734 C 2.062064170837402 125.1264343261719 2.092204093933105 125.0957641601562 2.122084617614746 125.0647583007812 C 2.183424949645996 125.0176696777344 2.244964599609375 124.9712982177734 2.306634902954102 124.9263153076172 C 2.323714256286621 124.9139099121094 2.337434768676758 124.8980865478516 2.346735000610352 124.8805541992188 C 2.375894546508789 124.8684692382812 2.399834632873535 124.8453216552734 2.405634880065918 124.8124694824219 L 2.405764579772949 124.8117523193359 C 3.390914916992188 123.9985656738281 4.653744697570801 123.510009765625 6.031344413757324 123.510009765625 Z" stroke="none" fill="#707070"/>
        </g>
        <line id="線_746" data-name="線 746" x2="4.881" y2="6.266" transform="translate(8.712 17.842)" fill="none" stroke="#707070" stroke-linecap="round" stroke-linejoin="round" stroke-width="1.715"/>
      </g>
    </g>
  </g>
</svg>
